<svg width="215" height="214" xmlns="http://www.w3.org/2000/svg" xmlns:xlink="http://www.w3.org/1999/xlink" xml:space="preserve" overflow="hidden"><defs><clipPath id="clip0"><rect x="2678" y="655" width="215" height="214"/></clipPath><linearGradient x1="2687" y1="715" x2="2765" y2="715" gradientUnits="userSpaceOnUse" spreadMethod="reflect" id="fill1"><stop offset="0" stop-color="#FFFFFF"/><stop offset="0.5" stop-color="#FFFFFF" stop-opacity="0.74902"/><stop offset="1" stop-color="#FFFFFF" stop-opacity="0.498039"/></linearGradient><linearGradient x1="2775" y1="702" x2="2893" y2="702" gradientUnits="userSpaceOnUse" spreadMethod="reflect" id="fill2"><stop offset="0" stop-color="#FFFFFF"/><stop offset="0.5" stop-color="#FFFFFF" stop-opacity="0.74902"/><stop offset="1" stop-color="#FFFFFF" stop-opacity="0.498039"/></linearGradient><linearGradient x1="2807" y1="810" x2="2885" y2="810" gradientUnits="userSpaceOnUse" spreadMethod="reflect" id="fill3"><stop offset="0" stop-color="#FFFFFF"/><stop offset="0.5" stop-color="#FFFFFF" stop-opacity="0.74902"/><stop offset="1" stop-color="#FFFFFF" stop-opacity="0.498039"/></linearGradient><linearGradient x1="2679" y1="823" x2="2797" y2="823" gradientUnits="userSpaceOnUse" spreadMethod="reflect" id="fill4"><stop offset="0" stop-color="#FFFFFF"/><stop offset="0.5" stop-color="#FFFFFF" stop-opacity="0.74902"/><stop offset="1" stop-color="#FFFFFF" stop-opacity="0.498039"/></linearGradient></defs><g clip-path="url(#clip0)" transform="translate(-2678 -655)"><path d="M2765 732.307C2763.79 689.801 2729.22 655.982 2687 656L2687 656C2687.04 691.968 2711.23 723.355 2745.81 732.307L2745.56 732.307 2745.56 754.421C2745.58 765.229 2754.27 773.986 2765 774L2765 732.307ZM2723.38 697.919C2718.47 692.952 2714.42 687.18 2711.42 680.85 2724.09 686.92 2734.3 697.203 2740.33 709.967 2734.04 706.946 2728.31 702.872 2723.38 697.919Z" fill="url(#fill1)" fill-rule="evenodd"/><path d="M2816.68 741C2859.19 739.787 2893.02 705.218 2893 663L2893 663C2857.02 663.036 2825.63 687.227 2816.68 721.812L2816.68 721.563 2794.58 721.563C2783.77 721.577 2775.01 730.271 2775 741ZM2851.07 699.384C2856.04 694.466 2861.81 690.421 2868.14 687.422 2862.07 700.094 2851.79 710.303 2839.02 716.33 2842.04 710.044 2846.12 704.315 2851.07 699.384Z" fill="url(#fill2)" fill-rule="evenodd"/><path d="M2807 792.677C2808.21 835.192 2842.78 869.018 2885 869L2885 869C2884.96 833.025 2860.77 801.631 2826.19 792.677L2826.44 792.677 2826.44 770.583C2826.42 759.774 2817.73 751.014 2807 751L2807 792.677ZM2848.62 827.073C2853.53 832.04 2857.58 837.813 2860.58 844.145 2847.91 838.074 2837.7 827.789 2831.67 815.021 2837.96 818.043 2843.69 822.118 2848.62 827.073Z" fill="url(#fill3)" fill-rule="evenodd"/><path d="M2755.32 784C2712.81 785.214 2678.98 819.783 2679 862L2679 862C2714.98 861.965 2746.37 837.774 2755.32 803.189L2755.32 803.438 2777.42 803.438C2788.23 803.424 2796.99 794.73 2797 784ZM2720.93 825.368C2715.96 830.285 2710.19 834.33 2703.86 837.33 2709.93 824.657 2720.21 814.448 2732.98 808.422 2729.96 814.707 2725.88 820.437 2720.93 825.368Z" fill="url(#fill4)" fill-rule="evenodd"/><path d="M2765 731.324C2763.77 688.808 2728.76 654.982 2686 655L2686 655C2686.04 690.976 2710.54 722.37 2745.57 731.324L2745.31 731.324 2745.31 753.417C2745.33 764.227 2754.13 772.986 2765 773L2765 731.324ZM2722.85 696.928C2717.87 691.96 2713.77 686.187 2710.74 679.855 2723.57 685.926 2733.91 696.212 2740.01 708.979 2733.67 705.949 2727.9 701.875 2722.93 696.928Z" fill="#26A69A" fill-rule="evenodd"/><path d="M2816.68 740C2859.19 738.786 2893.02 704.217 2893 662L2893 662C2857.02 662.036 2825.63 686.227 2816.68 720.812L2816.68 720.562 2794.58 720.562C2783.77 720.576 2775.01 729.271 2775 740ZM2851.07 698.384C2856.04 693.466 2861.81 689.421 2868.14 686.422 2862.07 699.094 2851.79 709.303 2839.02 715.329 2842.04 709.044 2846.12 703.315 2851.07 698.384Z" fill="#26A69A" fill-rule="evenodd"/><path d="M2806 791.677C2807.23 834.192 2842.24 868.018 2885 868L2885 868C2884.96 832.025 2860.46 800.631 2825.43 791.677L2825.69 791.677 2825.69 769.583C2825.67 758.774 2816.87 750.014 2806 750L2806 791.677ZM2847.9 826.073C2852.88 831.04 2856.98 836.813 2860.01 843.145 2847.18 837.074 2836.84 826.789 2830.74 814.021 2837.07 817.05 2842.85 821.125 2847.82 826.073Z" fill="#26A69A" fill-rule="evenodd"/><path d="M2754.32 783C2711.81 784.214 2677.98 818.783 2678 861L2678 861C2713.98 860.965 2745.37 836.774 2754.32 802.189L2754.32 802.438 2776.42 802.438C2787.23 802.424 2795.99 793.73 2796 783ZM2719.93 824.617C2714.96 829.534 2709.19 833.579 2702.86 836.578 2708.93 823.906 2719.21 813.697 2731.98 807.671 2728.96 813.956 2724.88 819.686 2719.93 824.617Z" fill="#26A69A" fill-rule="evenodd"/></g></svg>