<svg xmlns="http://www.w3.org/2000/svg" width="449" height="288" fill="none" viewBox="0 0 449 288">
  <path fill="url(#a)" d="M208.217 56.527c-.457-14.775-7.094-28.803-18.501-39.102-11.407-10.298-26.685-16.056-42.587-16.05.013 12.639 4.545 24.915 12.883 34.898 8.338 9.984 20.009 17.108 33.177 20.254h-.195V72.51c.005 3.752 1.611 7.348 4.465 10.001 2.853 2.653 6.723 4.145 10.758 4.15V56.527Zm-32.593-24.855c-3.851-3.59-7.019-7.76-9.368-12.336 9.925 4.387 17.92 11.819 22.639 21.045-4.922-2.184-9.409-5.129-13.271-8.709Z"/>
  <path fill="url(#b)" d="M248.228 63.24c15.895-.425 30.986-6.595 42.065-17.198 11.079-10.604 17.274-24.805 17.267-39.587-13.597.013-26.803 4.225-37.543 11.976-10.74 7.75-18.405 18.598-21.789 30.84v-.182h-17.175c-4.036.005-7.905 1.497-10.759 4.15-2.854 2.653-4.459 6.25-4.464 10h32.398Zm26.738-30.297c3.862-3.58 8.35-6.525 13.272-8.709-4.719 9.226-12.715 16.658-22.64 21.045 2.349-4.575 5.517-8.747 9.368-12.336Z"/>
  <path fill="url(#c)" d="M240.226 100.612c.457 14.775 7.095 28.803 18.502 39.101 11.407 10.299 26.684 16.057 42.586 16.051-.013-12.639-4.545-24.915-12.883-34.898-8.338-9.984-20.008-17.108-33.177-20.254h.195V84.647c-.005-3.752-1.61-7.348-4.464-10-2.854-2.654-6.723-4.146-10.759-4.15v30.115Zm32.593 24.855c3.852 3.589 7.019 7.761 9.369 12.336-9.925-4.387-17.921-11.819-22.64-21.045 4.922 2.184 9.41 5.129 13.271 8.709Z"/>
  <path fill="url(#d)" d="M200.021 93.9c-15.895.425-30.986 6.595-42.065 17.199-11.079 10.603-17.274 24.805-17.267 39.586 13.597-.012 26.803-4.225 37.543-11.975 10.74-7.751 18.405-18.599 21.789-30.84v.181h17.175c4.036-.005 7.905-1.497 10.759-4.15 2.854-2.653 4.459-6.249 4.464-10h-32.398Zm-26.739 30.116c-3.861 3.58-8.349 6.525-13.271 8.709 4.719-9.226 12.715-16.658 22.64-21.045-2.349 4.575-5.517 8.747-9.369 12.336Z"/>
  <path fill="#2F2F2F" d="M51.495 244.86h-28.69l-6.83 18.142H.164l29.471-72.75h17.956l26.739 72.75H57.936l-6.44-18.142ZM27.49 232.342h19.713l-9.173-26.851-10.54 26.851Zm106.758-21.607v47.895c0 9.616-2.537 16.691-7.416 21.59-4.88 4.898-11.711 7.075-20.298 7.075-6.586.262-13.088-1.455-18.541-4.898-4.684-3.266-7.417-8.346-8.002-15.058h13.857c.495 2.408 1.96 4.55 4.098 5.987 2.35 1.498 5.154 2.261 8.002 2.177 1.88.111 3.762-.192 5.492-.886a11.915 11.915 0 0 0 4.462-3.106c2.634-3.081 3.954-6.956 3.708-10.885v-1.996a21.043 21.043 0 0 1-7.06 4.392 22.287 22.287 0 0 1-8.358 1.414c-4.821.137-9.577-1.063-13.662-3.447-3.973-2.336-7.153-5.67-9.173-9.615-2.26-4.482-3.395-9.383-3.318-14.333-.109-5.03 1.097-10.011 3.513-14.513 2.102-3.904 5.35-7.174 9.368-9.434 3.827-2.15 8.215-3.279 12.686-3.266 3.431.014 6.822.694 9.954 1.996 2.993 1.351 5.652 3.267 7.807 5.624l1.171-6.531h11.71v-.182Zm-14.833 20.682c-.698-2.723-2.263-5.189-4.489-7.075-2.324-1.721-5.228-2.62-8.197-2.54a13.58 13.58 0 0 0-5.589 1.006 12.704 12.704 0 0 0-4.56 3.167c-2.414 3.186-3.71 6.988-3.71 10.885 0 3.897 1.296 7.699 3.71 10.885a12.59 12.59 0 0 0 4.58 3.083 13.436 13.436 0 0 0 5.569.908c3.003.111 5.958-.72 8.392-2.358 2.279-1.585 3.816-3.923 4.294-6.531v-11.43Zm63.43-21.771-.585 13.788a15.748 15.748 0 0 0-5.66-.908 15.324 15.324 0 0 0-7.026 1.633c-2.245 1.004-4.139 2.576-5.465 4.536-1.414 2.058-2.159 4.452-2.147 6.894v27.031h-14.833v-52.067h12.296l1.171 7.438c2.052-2.828 4.855-5.116 8.138-6.642a22.686 22.686 0 0 1 10.598-2.066c1.308.181 2.537.181 3.513.363Zm22.64-6.349h-14.833v-13.063h14.833v13.063Zm0 59.506h-14.833v-52.068h14.833v52.068Zm28.105-1.452c-4.609-1.715-8.649-4.531-11.711-8.164-2.933-3.695-4.631-8.112-4.879-12.699h16.004a11.32 11.32 0 0 0 1.643 4.793 12.245 12.245 0 0 0 3.627 3.734c3.552 2.25 7.81 3.336 12.1 3.084 3.923.196 7.814-.756 11.125-2.721a8.683 8.683 0 0 0 3.064-3.134 7.945 7.945 0 0 0 1.035-4.123c0-4.536-3.514-7.439-10.149-8.89l-16.004-3.265c-6.636-1.452-11.711-3.629-15.224-6.894a16.513 16.513 0 0 1-4.024-5.656 15.5 15.5 0 0 1-1.245-6.681c-.122-4.082 1.179-8.091 3.708-11.43 2.688-3.439 6.331-6.135 10.539-7.801a43.09 43.09 0 0 1 16.004-2.721c7.918-.294 15.725 1.807 22.25 5.987 2.803 2.01 5.108 4.557 6.758 7.468a21.705 21.705 0 0 1 2.805 9.404h-15.809c-.78-7.257-5.855-10.704-15.613-10.704-3.689-.22-7.363.603-10.54 2.359a7.547 7.547 0 0 0-2.875 2.684 6.866 6.866 0 0 0-1.028 3.665 5.909 5.909 0 0 0 .583 2.917 6.381 6.381 0 0 0 1.954 2.345 23.307 23.307 0 0 0 8.002 3.084l15.419 3.265c14.247 2.903 21.273 9.434 21.273 19.594.105 4.445-1.257 8.814-3.903 12.518-2.691 3.742-6.584 6.599-11.125 8.164a46.37 46.37 0 0 1-16.589 2.721 44.988 44.988 0 0 1-17.175-2.903Zm100.122-46.443c4.294 3.628 6.441 9.071 6.441 16.509v31.386h-11.71l-1.366-6.894c-1.894 2.426-4.366 4.413-7.222 5.805a23.47 23.47 0 0 1-10.929 2.54c-5.07.21-10.053-1.27-14.053-4.173a14.05 14.05 0 0 1-4.038-5.056 13.057 13.057 0 0 1-1.231-6.192c-.101-1.825.231-3.65.973-5.343a12.496 12.496 0 0 1 3.321-4.454c3.457-2.794 7.62-4.729 12.1-5.624a133.992 133.992 0 0 1 19.517-3.084v-.725c.193-2.436-.647-4.846-2.342-6.713a9.507 9.507 0 0 0-3.18-1.726 10.012 10.012 0 0 0-3.651-.451c-2.553-.119-5.061.658-7.026 2.177a6.858 6.858 0 0 0-1.9 2.368 6.377 6.377 0 0 0-.637 2.893h-14.892c-.106-3.435.99-6.809 3.123-9.615 2.177-2.972 5.225-5.301 8.783-6.713a31.4 31.4 0 0 1 12.686-2.358c6.279-.285 12.44 1.661 17.233 5.443Zm-13.076 36.284c2.488-1.991 4.089-4.772 4.489-7.801v-4.173a50.286 50.286 0 0 0-15.614 2.721c-3.513 1.452-5.27 3.447-5.27 6.169a4.748 4.748 0 0 0 .482 2.429c.375.76.947 1.421 1.666 1.925 1.64 1.094 3.647 1.608 5.659 1.451a12.398 12.398 0 0 0 4.593-.546 11.787 11.787 0 0 0 3.995-2.175Zm53.672-52.067a16.44 16.44 0 0 0-2.147 8.889v2.722h17.566v11.61h-17.566v40.457h-14.833v-40.457h-10.929v-9.615l10.929-1.814v-2.177c0-8.164 1.952-14.332 5.856-18.868 3.903-4.535 9.758-6.712 17.76-6.712a32.247 32.247 0 0 1 13.467 2.721l-4.489 11.429a22.306 22.306 0 0 0-8.197-1.814c-3.513.381-6.051 1.452-7.417 3.629Zm73.97 42.269h-39.815c.454 3.079 1.96 5.94 4.294 8.164a12.564 12.564 0 0 0 4.156 2.38c1.541.53 3.18.769 4.822.704 2.573.061 5.101-.637 7.221-1.995 1.835-1.16 3.153-2.901 3.708-4.899h14.443c-.131 3.486-1.427 6.847-3.708 9.616-2.461 2.895-5.69 5.146-9.369 6.531a33.039 33.039 0 0 1-12.881 2.358c-5.193.157-10.33-1.037-14.833-3.447-4.142-2.309-7.519-5.636-9.758-9.615-2.219-4.47-3.352-9.339-3.318-14.262.033-4.923 1.233-9.778 3.513-14.221 2.247-4.08 5.7-7.479 9.954-9.797 4.45-2.366 9.511-3.558 14.637-3.447 5.039-.105 10.019 1.021 14.443 3.266 4.045 2.064 7.314 5.23 9.368 9.071 2.261 4.159 3.399 8.766 3.318 13.425v6.168h-.195Zm-34.936-17.598c-2.27 1.928-3.838 4.464-4.488 7.257h24.201c-.228-2.725-1.47-5.291-3.513-7.257a10.727 10.727 0 0 0-3.715-2.05 11.252 11.252 0 0 0-4.287-.489 11.536 11.536 0 0 0-4.385.472 10.99 10.99 0 0 0-3.813 2.067Z"/>
  <path fill="#26A69A" d="M207.964 55.984c-.457-14.775-7.095-28.803-18.502-39.101C178.055 6.584 162.777.826 146.875.832c.014 12.639 4.546 24.915 12.884 34.898 8.337 9.984 20.008 17.109 33.177 20.254h-.195V71.95c.005 3.752 1.611 7.348 4.464 10.001 2.854 2.653 6.723 4.145 10.759 4.15V55.984ZM175.371 31.13c-3.852-3.59-7.02-7.76-9.369-12.336 9.925 4.387 17.921 11.819 22.64 21.045-4.901-2.19-9.369-5.134-13.213-8.709h-.058Zm72.662 31.565c15.895-.425 30.985-6.595 42.064-17.198 11.08-10.604 17.274-24.805 17.268-39.587-13.597.013-26.804 4.225-37.544 11.976-10.74 7.75-18.404 18.598-21.788 30.84v-.182h-17.176c-4.035.005-7.904 1.497-10.758 4.15-2.854 2.653-4.46 6.25-4.465 10.001h32.399Zm26.738-30.297c3.862-3.58 8.349-6.525 13.272-8.709-4.72 9.226-12.715 16.658-22.64 21.045 2.349-4.575 5.517-8.747 9.368-12.336ZM240.03 99.887c.458 14.776 7.095 28.803 18.502 39.102 11.407 10.298 26.685 16.057 42.587 16.05-.014-12.638-4.546-24.914-12.883-34.898-8.338-9.983-20.009-17.108-33.178-20.254h.196V83.922c-.006-3.751-1.611-7.348-4.465-10-2.854-2.653-6.723-4.146-10.759-4.15v30.115Zm32.399 24.855c3.851 3.59 7.019 7.761 9.368 12.337-9.925-4.387-17.921-11.819-22.64-21.045 4.901 2.189 9.369 5.133 13.213 8.708h.059Zm-72.604-31.568c-15.895.425-30.985 6.595-42.065 17.198-11.079 10.604-17.273 24.805-17.266 39.587 13.596-.013 26.803-4.226 37.543-11.976 10.74-7.75 18.404-18.599 21.788-30.84v.182H217c4.036-.005 7.905-1.498 10.759-4.15 2.854-2.653 4.46-6.25 4.465-10.001h-32.399Zm-26.738 30.297c-3.862 3.58-8.349 6.525-13.272 8.708 4.72-9.225 12.715-16.658 22.64-21.044-2.349 4.575-5.517 8.746-9.368 12.336Z"/>
  <defs>
    <linearGradient id="a" x1="147.031" x2="208.237" y1="43.991" y2="43.991" gradientUnits="userSpaceOnUse">
      <stop stop-color="#fff"/>
      <stop offset="1" stop-color="#fff" stop-opacity=".5"/>
    </linearGradient>
    <linearGradient id="b" x1="215.83" x2="307.56" y1="34.829" y2="34.829" gradientUnits="userSpaceOnUse">
      <stop stop-color="#fff"/>
      <stop offset="1" stop-color="#fff" stop-opacity=".5"/>
    </linearGradient>
    <linearGradient id="c" x1="240.148" x2="301.353" y1="113.112" y2="113.112" gradientUnits="userSpaceOnUse">
      <stop stop-color="#fff"/>
      <stop offset="1" stop-color="#fff" stop-opacity=".5"/>
    </linearGradient>
    <linearGradient id="d" x1="140.689" x2="232.419" y1="122.275" y2="122.275" gradientUnits="userSpaceOnUse">
      <stop stop-color="#fff"/>
      <stop offset="1" stop-color="#fff" stop-opacity=".5"/>
    </linearGradient>
  </defs>
</svg>
