<svg xmlns="http://www.w3.org/2000/svg" viewBox="30 90 120 110" fill="none">
  <path d="M78.59,132.79a31.3,31.3,0,0,0-31.3-30.4h0a31.42,31.42,0,0,0,23.6,30.4h-.1v8.8a7.81,7.81,0,0,0,7.8,7.8v-16.6Zm-16.7-13.7a24.69,24.69,0,0,1-4.8-6.8,24.49,24.49,0,0,1,11.6,11.6A24.69,24.69,0,0,1,61.89,119.09Z" fill="#5B7A2F"/>
  <path d="M99.09,136.49a31.3,31.3,0,0,0,30.4-31.3h0a31.42,31.42,0,0,0-30.4,23.6v-.1h-8.8a7.81,7.81,0,0,0-7.8,7.8Zm13.7-16.7a24.69,24.69,0,0,1,6.8-4.8,24.49,24.49,0,0,1-11.6,11.6A24.69,24.69,0,0,1,112.79,119.79Z" fill="#5B7A2F"/>
  <path d="M94.89,157.09a31.3,31.3,0,0,0,31.3,30.4h0a31.42,31.42,0,0,0-23.6-30.4h.1v-8.8a7.81,7.81,0,0,0-7.8-7.8v16.6Zm16.7,13.7a24.69,24.69,0,0,1,4.8,6.8,24.49,24.49,0,0,1-11.6-11.6A22.75,22.75,0,0,1,111.59,170.79Z" fill="#5B7A2F"/>
  <path d="M74.39,153.39A31.3,31.3,0,0,0,44,184.69h0a31.42,31.42,0,0,0,30.4-23.6v.1h8.8a7.81,7.81,0,0,0,7.8-7.8ZM60.69,170a24.69,24.69,0,0,1-6.8,4.8,24.49,24.49,0,0,1,11.6-11.6A24.69,24.69,0,0,1,60.69,170Z" fill="#5B7A2F"/>
</svg>