<svg id="Camada_1" data-name="Camada 1" xmlns="http://www.w3.org/2000/svg" xmlns:xlink="http://www.w3.org/1999/xlink" viewBox="0 0 1751.74 595.3"><defs><style>.cls-1{fill:#fff;}.cls-2{fill:#26a69a;}.cls-3{fill:#2f2f2f;}.cls-4{fill:url(#Gradiente_sem_nome_20);}.cls-5{fill:url(#Gradiente_sem_nome_20-2);}.cls-6{fill:url(#Gradiente_sem_nome_20-3);}.cls-7{fill:url(#Gradiente_sem_nome_20-4);}.cls-8{fill:url(#Gradiente_sem_nome_20-5);}.cls-9{fill:url(#Gradiente_sem_nome_20-6);}.cls-10{fill:url(#Gradiente_sem_nome_20-7);}.cls-11{fill:url(#Gradiente_sem_nome_20-8);}.cls-12{fill:url(#Gradiente_sem_nome_20-9);}.cls-13{fill:url(#Gradiente_sem_nome_20-10);}.cls-14{fill:url(#Gradiente_sem_nome_20-11);}.cls-15{fill:url(#Gradiente_sem_nome_20-12);}</style><linearGradient id="Gradiente_sem_nome_20" x1="1499.03" y1="504.84" x2="1530.39" y2="504.84" gradientTransform="matrix(1, 0, 0, -1, 0, 596.72)" gradientUnits="userSpaceOnUse"><stop offset="0" stop-color="#fff"/><stop offset="1" stop-color="#fff" stop-opacity="0.5"/></linearGradient><linearGradient id="Gradiente_sem_nome_20-2" x1="1534.25" y1="509.89" x2="1581.25" y2="509.89" xlink:href="#Gradiente_sem_nome_20"/><linearGradient id="Gradiente_sem_nome_20-3" x1="1546.73" y1="466.84" x2="1578.09" y2="466.84" xlink:href="#Gradiente_sem_nome_20"/><linearGradient id="Gradiente_sem_nome_20-4" x1="1495.83" y1="461.79" x2="1542.83" y2="461.79" xlink:href="#Gradiente_sem_nome_20"/><linearGradient id="Gradiente_sem_nome_20-5" x1="1069.78" y1="507.44" x2="1101.14" y2="507.44" xlink:href="#Gradiente_sem_nome_20"/><linearGradient id="Gradiente_sem_nome_20-6" x1="1105.03" y1="512.49" x2="1152.03" y2="512.49" xlink:href="#Gradiente_sem_nome_20"/><linearGradient id="Gradiente_sem_nome_20-7" x1="1117.49" y1="469.34" x2="1148.85" y2="469.34" xlink:href="#Gradiente_sem_nome_20"/><linearGradient id="Gradiente_sem_nome_20-8" x1="1066.53" y1="464.29" x2="1113.53" y2="464.29" xlink:href="#Gradiente_sem_nome_20"/><linearGradient id="Gradiente_sem_nome_20-9" x1="464.99" y1="470.84" x2="496.36" y2="470.84" xlink:href="#Gradiente_sem_nome_20"/><linearGradient id="Gradiente_sem_nome_20-10" x1="500.24" y1="475.89" x2="547.24" y2="475.89" xlink:href="#Gradiente_sem_nome_20"/><linearGradient id="Gradiente_sem_nome_20-11" x1="512.69" y1="432.74" x2="544.06" y2="432.74" xlink:href="#Gradiente_sem_nome_20"/><linearGradient id="Gradiente_sem_nome_20-12" x1="461.79" y1="427.69" x2="508.79" y2="427.69" xlink:href="#Gradiente_sem_nome_20"/></defs><rect class="cls-1" width="841.9" height="595.3"/><rect class="cls-1" x="909.84" width="841.9" height="595.3"/><rect class="cls-2" x="1330.84" width="420.9" height="297.6"/><rect class="cls-3" x="909.84" y="297.6" width="420.9" height="297.6"/><path class="cls-4" d="M1530.33,98.79a31.3,31.3,0,0,0-31.3-30.4h0a31.42,31.42,0,0,0,23.6,30.4h-.1v8.8a7.81,7.81,0,0,0,7.8,7.8V98.79Zm-16.7-13.7a24.69,24.69,0,0,1-4.8-6.8,24.49,24.49,0,0,1,11.6,11.6A24.69,24.69,0,0,1,1513.63,85.09Z" transform="translate(0.01 0.01)"/><path class="cls-5" d="M1550.93,102.49a31.3,31.3,0,0,0,30.4-31.3h0a31.42,31.42,0,0,0-30.4,23.6v-.1h-8.8a7.81,7.81,0,0,0-7.8,7.8Zm13.7-16.7a24.69,24.69,0,0,1,6.8-4.8,24.49,24.49,0,0,1-11.6,11.6A24.69,24.69,0,0,1,1564.63,85.79Z" transform="translate(0.01 0.01)"/><path class="cls-6" d="M1546.73,123a31.3,31.3,0,0,0,31.3,30.4h0a31.42,31.42,0,0,0-23.6-30.4h.1v-8.8a7.81,7.81,0,0,0-7.8-7.8V123Zm16.7,13.7a24.69,24.69,0,0,1,4.8,6.8,24.49,24.49,0,0,1-11.6-11.6A24.69,24.69,0,0,1,1563.43,136.69Z" transform="translate(0.01 0.01)"/><path class="cls-7" d="M1526.23,119.29a31.3,31.3,0,0,0-30.4,31.3h0a31.42,31.42,0,0,0,30.4-23.6v.1h8.8a7.81,7.81,0,0,0,7.8-7.8Zm-13.7,16.7a24.69,24.69,0,0,1-6.8,4.8,24.49,24.49,0,0,1,11.6-11.6A24.69,24.69,0,0,1,1512.53,136Z" transform="translate(0.01 0.01)"/><path class="cls-1" d="M1450.13,202.49h-14.7l-3.5,10h-8.1l15.1-40.1h9.2l13.7,40.1h-8.4Zm-12.3-6.9h10.1l-4.7-14.8Z" transform="translate(0.01 0.01)"/><path class="cls-1" d="M1492.53,183.79v26.4c0,5.3-1.3,9.2-3.8,11.9s-6,3.9-10.4,3.9a15.71,15.71,0,0,1-9.5-2.7c-2.4-1.8-3.8-4.6-4.1-8.3h7.1a5.3,5.3,0,0,0,2.1,3.3,6.86,6.86,0,0,0,4.1,1.2,6.12,6.12,0,0,0,5.1-2.2,8.82,8.82,0,0,0,1.9-6v-1.1a10.7,10.7,0,0,1-7.9,3.2,12.45,12.45,0,0,1-7-1.9,12.76,12.76,0,0,1-4.7-5.3,18,18,0,0,1-1.7-7.9,17.15,17.15,0,0,1,1.8-8,12.75,12.75,0,0,1,4.8-5.2,12.49,12.49,0,0,1,6.5-1.8,12.63,12.63,0,0,1,5.1,1.1,12.3,12.3,0,0,1,4,3.1l.6-3.6h6Zm-7.6,11.3a7.69,7.69,0,0,0-2.3-3.9,6.44,6.44,0,0,0-4.2-1.4,6.53,6.53,0,0,0-5.2,2.3,10.42,10.42,0,0,0,0,12,6.45,6.45,0,0,0,5.2,2.2,6.87,6.87,0,0,0,4.3-1.3,5.69,5.69,0,0,0,2.2-3.6Z" transform="translate(0.01 0.01)"/><path class="cls-1" d="M1517.33,183.09l-.3,7.6a7.56,7.56,0,0,0-2.9-.5,7.4,7.4,0,0,0-3.6.9,6.78,6.78,0,0,0-2.8,2.5,7,7,0,0,0-1.1,3.8v14.9H1499v-28.7h6.3l.6,4.1a10.92,10.92,0,0,1,9.6-4.8A14.05,14.05,0,0,0,1517.33,183.09Z" transform="translate(0.01 0.01)"/><path class="cls-1" d="M1528.93,179.59h-7.6v-7.2h7.6Zm0,32.9h-7.6v-28.7h7.6Z" transform="translate(0.01 0.01)"/><path class="cls-1" d="M1543.33,211.59a14.44,14.44,0,0,1-6-4.5,12.88,12.88,0,0,1-2.5-7h8.2a6.56,6.56,0,0,0,2.7,4.7,9.9,9.9,0,0,0,6.2,1.7,9.63,9.63,0,0,0,5.7-1.5,4.64,4.64,0,0,0,2.1-4c0-2.5-1.8-4.1-5.2-4.9l-8.2-1.8c-3.4-.8-6-2-7.8-3.8a9.12,9.12,0,0,1-2.7-6.8,10.44,10.44,0,0,1,1.9-6.3,12.94,12.94,0,0,1,5.4-4.3,20.69,20.69,0,0,1,8.2-1.5,18.77,18.77,0,0,1,11.4,3.3,12.64,12.64,0,0,1,4.9,9.3h-8.1c-.4-4-3-5.9-8-5.9a9.39,9.39,0,0,0-5.4,1.3,4,4,0,0,0-2,3.5,3.47,3.47,0,0,0,1.3,2.9,11.44,11.44,0,0,0,4.1,1.7l7.9,1.8c7.3,1.6,10.9,5.2,10.9,10.8a12,12,0,0,1-2,6.9,11.78,11.78,0,0,1-5.7,4.5,22.25,22.25,0,0,1-8.5,1.5A21.94,21.94,0,0,1,1543.33,211.59Z" transform="translate(0.01 0.01)"/><path class="cls-1" d="M1594.63,186c2.2,2,3.3,5,3.3,9.1v17.3h-6l-.7-3.8a10.73,10.73,0,0,1-3.7,3.2,11.34,11.34,0,0,1-5.6,1.4,10.91,10.91,0,0,1-7.2-2.3,7.68,7.68,0,0,1-2.7-6.2,6.87,6.87,0,0,1,2.2-5.4,13.9,13.9,0,0,1,6.2-3.1,64.14,64.14,0,0,1,10-1.7v-.4a5.15,5.15,0,0,0-1.2-3.7,4.79,4.79,0,0,0-3.5-1.2,5.22,5.22,0,0,0-3.6,1.2,3.74,3.74,0,0,0-1.3,2.9h-7.6a8.75,8.75,0,0,1,1.6-5.3,10.37,10.37,0,0,1,4.5-3.7,15.1,15.1,0,0,1,6.5-1.3A12.52,12.52,0,0,1,1594.63,186Zm-6.7,20.1a6.76,6.76,0,0,0,2.3-4.3v-2.3a24.13,24.13,0,0,0-8,1.5c-1.8.8-2.7,1.9-2.7,3.4a2.78,2.78,0,0,0,1.1,2.4,4.35,4.35,0,0,0,2.9.8A6.06,6.06,0,0,0,1587.93,206.09Z" transform="translate(0.01 0.01)"/><path class="cls-1" d="M1615.43,177.29a9.61,9.61,0,0,0-1.1,4.9v1.5h9v6.4h-9v22.3h-7.6v-22.3h-5.6v-5.3l5.6-1v-1.2c0-4.5,1-7.9,3-10.4s5-3.7,9.1-3.7a15.53,15.53,0,0,1,6.9,1.5l-2.3,6.3a10.75,10.75,0,0,0-4.2-1A4.78,4.78,0,0,0,1615.43,177.29Z" transform="translate(0.01 0.01)"/><path class="cls-1" d="M1653.33,200.59h-20.4a8,8,0,0,0,2.2,4.5,6.35,6.35,0,0,0,4.6,1.7,6.24,6.24,0,0,0,3.7-1.1,4.68,4.68,0,0,0,1.9-2.7h7.4a9.25,9.25,0,0,1-1.9,5.3,11.73,11.73,0,0,1-4.8,3.6,15.88,15.88,0,0,1-6.6,1.3,14.3,14.3,0,0,1-7.6-1.9,13.45,13.45,0,0,1-5-5.3,18.48,18.48,0,0,1,.1-15.7,13.27,13.27,0,0,1,5.1-5.4,14.43,14.43,0,0,1,7.5-1.9,14.75,14.75,0,0,1,7.4,1.8,11.59,11.59,0,0,1,4.8,5,15.84,15.84,0,0,1,1.7,7.4v3.4Zm-17.9-9.7a7.59,7.59,0,0,0-2.3,4h12.4a6.48,6.48,0,0,0-1.8-4,5.39,5.39,0,0,0-4.1-1.4A6.28,6.28,0,0,0,1635.43,190.89Z" transform="translate(0.01 0.01)"/><path class="cls-2" d="M1101.13,393a31.3,31.3,0,0,0-31.3-30.4h0a31.42,31.42,0,0,0,23.6,30.4h-.1v8.8a7.81,7.81,0,0,0,7.8,7.8V393Zm-16.7-13.7a24.69,24.69,0,0,1-4.8-6.8,24.49,24.49,0,0,1,11.6,11.6A24.69,24.69,0,0,1,1084.43,379.29Z" transform="translate(0.01 0.01)"/><path class="cls-2" d="M1121.63,396.69a31.3,31.3,0,0,0,30.4-31.3h0a31.42,31.42,0,0,0-30.4,23.6v-.1h-8.8a7.81,7.81,0,0,0-7.8,7.8Zm13.7-16.6a24.69,24.69,0,0,1,6.8-4.8,24.49,24.49,0,0,1-11.6,11.6A24.69,24.69,0,0,1,1135.33,380.09Z" transform="translate(0.01 0.01)"/><path class="cls-2" d="M1117.53,417.29a31.3,31.3,0,0,0,31.3,30.4h0a31.42,31.42,0,0,0-23.6-30.4h.1v-8.8a7.81,7.81,0,0,0-7.8-7.8v16.6Zm16.7,13.7a24.69,24.69,0,0,1,4.8,6.8,24.49,24.49,0,0,1-11.6-11.6A24.69,24.69,0,0,1,1134.23,431Z" transform="translate(0.01 0.01)"/><path class="cls-2" d="M1096.93,413.59a31.3,31.3,0,0,0-30.4,31.3h0a31.42,31.42,0,0,0,30.4-23.6v.1h8.8a7.81,7.81,0,0,0,7.8-7.8Zm-13.7,16.7a24.69,24.69,0,0,1-6.8,4.8,24.49,24.49,0,0,1,11.6-11.6A24.69,24.69,0,0,1,1083.23,430.29Z" transform="translate(0.01 0.01)"/><path class="cls-1" d="M1020.83,496.79h-14.7l-3.5,10h-8.1l15.1-40.1h9.2l13.7,40.1h-8.4Zm-12.3-6.9h10.1l-4.7-14.8Z" transform="translate(0.01 0.01)"/><path class="cls-1" d="M1063.23,478v26.4c0,5.3-1.3,9.2-3.8,11.9s-6,3.9-10.4,3.9a15.71,15.71,0,0,1-9.5-2.7c-2.4-1.8-3.8-4.6-4.1-8.3h7.1a5.3,5.3,0,0,0,2.1,3.3,6.86,6.86,0,0,0,4.1,1.2,6.12,6.12,0,0,0,5.1-2.2,8.82,8.82,0,0,0,1.9-6v-1.1a10.7,10.7,0,0,1-7.9,3.2,12.45,12.45,0,0,1-7-1.9,12.76,12.76,0,0,1-4.7-5.3,18,18,0,0,1-1.7-7.9,17.15,17.15,0,0,1,1.8-8,12.75,12.75,0,0,1,4.8-5.2,12.49,12.49,0,0,1,6.5-1.8,12.63,12.63,0,0,1,5.1,1.1,12.3,12.3,0,0,1,4,3.1l.6-3.6h6Zm-7.6,11.4a7.69,7.69,0,0,0-2.3-3.9,5.94,5.94,0,0,0-4.2-1.4,6.53,6.53,0,0,0-5.2,2.3,10.42,10.42,0,0,0,0,12,6.45,6.45,0,0,0,5.2,2.2,6.87,6.87,0,0,0,4.3-1.3,5.69,5.69,0,0,0,2.2-3.6Z" transform="translate(0.01 0.01)"/><path class="cls-1" d="M1088.13,477.39l-.3,7.6a7.56,7.56,0,0,0-2.9-.5,7.4,7.4,0,0,0-3.6.9,6.78,6.78,0,0,0-2.8,2.5,7,7,0,0,0-1.1,3.8v14.9h-7.6v-28.7h6.3l.6,4.1a10.92,10.92,0,0,1,9.6-4.8C1087,477.29,1087.63,477.29,1088.13,477.39Z" transform="translate(0.01 0.01)"/><path class="cls-1" d="M1099.73,473.89h-7.6v-7.2h7.6Zm0,32.8h-7.6V478h7.6Z" transform="translate(0.01 0.01)"/><path class="cls-1" d="M1114.13,505.89a14.44,14.44,0,0,1-6-4.5,12.6,12.6,0,0,1-2.5-7h8.2a6.56,6.56,0,0,0,2.7,4.7,9.9,9.9,0,0,0,6.2,1.7,9.63,9.63,0,0,0,5.7-1.5,4.64,4.64,0,0,0,2.1-4c0-2.5-1.8-4.1-5.2-4.9l-8.2-1.8c-3.4-.8-6-2-7.8-3.8a9.12,9.12,0,0,1-2.7-6.8,10.44,10.44,0,0,1,1.9-6.3,12.94,12.94,0,0,1,5.4-4.3,20.69,20.69,0,0,1,8.2-1.5,18.77,18.77,0,0,1,11.4,3.3,12.64,12.64,0,0,1,4.9,9.3h-8.1c-.4-4-3-5.9-8-5.9a9.39,9.39,0,0,0-5.4,1.3,4,4,0,0,0-2,3.5,3.47,3.47,0,0,0,1.3,2.9,11.44,11.44,0,0,0,4.1,1.7l7.9,1.8c7.3,1.6,10.9,5.2,10.9,10.8a12,12,0,0,1-2,6.9,11.78,11.78,0,0,1-5.7,4.5,22.25,22.25,0,0,1-8.5,1.5A21.61,21.61,0,0,1,1114.13,505.89Z" transform="translate(0.01 0.01)"/><path class="cls-1" d="M1165.43,480.29c2.2,2,3.3,5,3.3,9.1v17.3h-6l-.7-3.8a10.73,10.73,0,0,1-3.7,3.2,11.34,11.34,0,0,1-5.6,1.4,10.91,10.91,0,0,1-7.2-2.3,7.68,7.68,0,0,1-2.7-6.2,6.87,6.87,0,0,1,2.2-5.4,13.9,13.9,0,0,1,6.2-3.1,66.32,66.32,0,0,1,10-1.7v-.4a5.15,5.15,0,0,0-1.2-3.7,4.79,4.79,0,0,0-3.5-1.2,5.22,5.22,0,0,0-3.6,1.2,3.74,3.74,0,0,0-1.3,2.9H1144a8.75,8.75,0,0,1,1.6-5.3,10.37,10.37,0,0,1,4.5-3.7,15.1,15.1,0,0,1,6.5-1.3A12.69,12.69,0,0,1,1165.43,480.29Zm-6.7,20.1a6.76,6.76,0,0,0,2.3-4.3v-2.3a24.13,24.13,0,0,0-8,1.5c-1.8.8-2.7,1.9-2.7,3.4a2.78,2.78,0,0,0,1.1,2.4,4.35,4.35,0,0,0,2.9.8A6.37,6.37,0,0,0,1158.73,500.39Z" transform="translate(0.01 0.01)"/><path class="cls-1" d="M1186.23,471.59a9.61,9.61,0,0,0-1.1,4.9V478h9v6.4h-9v22.3h-7.6v-22.3h-5.6v-5.2l5.6-1V477c0-4.5,1-7.9,3-10.4s5-3.7,9.1-3.7a15.53,15.53,0,0,1,6.9,1.5l-2.3,6.3a10.75,10.75,0,0,0-4.2-1A4.33,4.33,0,0,0,1186.23,471.59Z" transform="translate(0.01 0.01)"/><path class="cls-1" d="M1224.13,494.89h-20.4a8,8,0,0,0,2.2,4.5,6.35,6.35,0,0,0,4.6,1.7,6.24,6.24,0,0,0,3.7-1.1,4.68,4.68,0,0,0,1.9-2.7h7.4a9.25,9.25,0,0,1-1.9,5.3,11.73,11.73,0,0,1-4.8,3.6,15.88,15.88,0,0,1-6.6,1.3,14.3,14.3,0,0,1-7.6-1.9,13.45,13.45,0,0,1-5-5.3,18.48,18.48,0,0,1,.1-15.7,13.27,13.27,0,0,1,5.1-5.4,14.43,14.43,0,0,1,7.5-1.9,14.75,14.75,0,0,1,7.4,1.8,11.59,11.59,0,0,1,4.8,5,16.14,16.14,0,0,1,1.7,7.4v3.4Zm-17.9-9.7a7.59,7.59,0,0,0-2.3,4h12.4a6.48,6.48,0,0,0-1.8-4,5.39,5.39,0,0,0-4.1-1.4A5.52,5.52,0,0,0,1206.23,485.19Z" transform="translate(0.01 0.01)"/><path class="cls-8" d="M1101.13,96.19a31.3,31.3,0,0,0-31.3-30.4h0a31.42,31.42,0,0,0,23.6,30.4h-.1V105a7.81,7.81,0,0,0,7.8,7.8V96.19Zm-16.7-13.7a24.69,24.69,0,0,1-4.8-6.8,24.49,24.49,0,0,1,11.6,11.6A24.69,24.69,0,0,1,1084.43,82.49Z" transform="translate(0.01 0.01)"/><path class="cls-9" d="M1121.63,99.89a31.3,31.3,0,0,0,30.4-31.3h0a31.42,31.42,0,0,0-30.4,23.6v-.1h-8.8a7.81,7.81,0,0,0-7.8,7.8Zm13.7-16.7a24.69,24.69,0,0,1,6.8-4.8,24.49,24.49,0,0,1-11.6,11.6A24.69,24.69,0,0,1,1135.33,83.19Z" transform="translate(0.01 0.01)"/><path class="cls-10" d="M1117.53,120.49a31.3,31.3,0,0,0,31.3,30.4h0a31.42,31.42,0,0,0-23.6-30.4h.1v-8.8a7.81,7.81,0,0,0-7.8-7.8v16.6Zm16.7,13.7a24.69,24.69,0,0,1,4.8,6.8,24.49,24.49,0,0,1-11.6-11.6A24.69,24.69,0,0,1,1134.23,134.19Z" transform="translate(0.01 0.01)"/><path class="cls-11" d="M1096.93,116.79a31.3,31.3,0,0,0-30.4,31.3h0a31.42,31.42,0,0,0,30.4-23.6v.1h8.8a7.81,7.81,0,0,0,7.8-7.8Zm-13.7,16.6a24.69,24.69,0,0,1-6.8,4.8,24.49,24.49,0,0,1,11.6-11.6A24.69,24.69,0,0,1,1083.23,133.39Z" transform="translate(0.01 0.01)"/><path class="cls-3" d="M1020.83,200h-14.7l-3.5,10h-8.1l15.1-40.1h9.2l13.7,40.1h-8.4Zm-12.3-6.9h10.1l-4.7-14.8Z" transform="translate(0.01 0.01)"/><path class="cls-3" d="M1063.23,181.19v26.4c0,5.3-1.3,9.2-3.8,11.9s-6,3.9-10.4,3.9a15.71,15.71,0,0,1-9.5-2.7c-2.4-1.8-3.8-4.6-4.1-8.3h7.1a5.3,5.3,0,0,0,2.1,3.3,6.86,6.86,0,0,0,4.1,1.2,6.12,6.12,0,0,0,5.1-2.2,8.82,8.82,0,0,0,1.9-6v-1.1a10.7,10.7,0,0,1-7.9,3.2,12.45,12.45,0,0,1-7-1.9,12.76,12.76,0,0,1-4.7-5.3,18,18,0,0,1-1.7-7.9,17.15,17.15,0,0,1,1.8-8,12.75,12.75,0,0,1,4.8-5.2,12.49,12.49,0,0,1,6.5-1.8,12.63,12.63,0,0,1,5.1,1.1,12.3,12.3,0,0,1,4,3.1l.6-3.6h6Zm-7.6,11.4a7.69,7.69,0,0,0-2.3-3.9,6.44,6.44,0,0,0-4.2-1.4,6.53,6.53,0,0,0-5.2,2.3,10.42,10.42,0,0,0,0,12,6.45,6.45,0,0,0,5.2,2.2,6.87,6.87,0,0,0,4.3-1.3,5.69,5.69,0,0,0,2.2-3.6Z" transform="translate(0.01 0.01)"/><path class="cls-3" d="M1088.13,180.59l-.3,7.6a7.56,7.56,0,0,0-2.9-.5,7.4,7.4,0,0,0-3.6.9,6.78,6.78,0,0,0-2.8,2.5,7,7,0,0,0-1.1,3.8v14.9h-7.6v-28.7h6.3l.6,4.1a10.92,10.92,0,0,1,9.6-4.8C1087,180.49,1087.63,180.49,1088.13,180.59Z" transform="translate(0.01 0.01)"/><path class="cls-3" d="M1099.73,177.09h-7.6v-7.2h7.6Zm0,32.8h-7.6v-28.7h7.6Z" transform="translate(0.01 0.01)"/><path class="cls-3" d="M1114.13,209.09a14.44,14.44,0,0,1-6-4.5,12.88,12.88,0,0,1-2.5-7h8.2a6.56,6.56,0,0,0,2.7,4.7,9.9,9.9,0,0,0,6.2,1.7,9.63,9.63,0,0,0,5.7-1.5,4.64,4.64,0,0,0,2.1-4c0-2.5-1.8-4.1-5.2-4.9l-8.2-1.8c-3.4-.8-6-2-7.8-3.8a9.12,9.12,0,0,1-2.7-6.8,10.44,10.44,0,0,1,1.9-6.3,12.94,12.94,0,0,1,5.4-4.3,20.69,20.69,0,0,1,8.2-1.5,18.77,18.77,0,0,1,11.4,3.3,12.64,12.64,0,0,1,4.9,9.3h-8.1c-.4-4-3-5.9-8-5.9a9.39,9.39,0,0,0-5.4,1.3,4,4,0,0,0-2,3.5,3.47,3.47,0,0,0,1.3,2.9,11.44,11.44,0,0,0,4.1,1.7l7.9,1.8c7.3,1.6,10.9,5.2,10.9,10.8a12,12,0,0,1-2,6.9,11.78,11.78,0,0,1-5.7,4.5,22.25,22.25,0,0,1-8.5,1.5A21.61,21.61,0,0,1,1114.13,209.09Z" transform="translate(0.01 0.01)"/><path class="cls-3" d="M1165.43,183.49c2.2,2,3.3,5,3.3,9.1v17.3h-6l-.7-3.8a10.73,10.73,0,0,1-3.7,3.2,11.34,11.34,0,0,1-5.6,1.4,10.91,10.91,0,0,1-7.2-2.3,7.68,7.68,0,0,1-2.7-6.2,6.87,6.87,0,0,1,2.2-5.4,13.9,13.9,0,0,1,6.2-3.1,64.14,64.14,0,0,1,10-1.7v-.4a5.15,5.15,0,0,0-1.2-3.7,4.79,4.79,0,0,0-3.5-1.2,5.22,5.22,0,0,0-3.6,1.2,3.74,3.74,0,0,0-1.3,2.9H1144a8.75,8.75,0,0,1,1.6-5.3,10.37,10.37,0,0,1,4.5-3.7,15.1,15.1,0,0,1,6.5-1.3A12.69,12.69,0,0,1,1165.43,183.49Zm-6.7,20a6.76,6.76,0,0,0,2.3-4.3v-2.3a24.13,24.13,0,0,0-8,1.5c-1.8.8-2.7,1.9-2.7,3.4a2.78,2.78,0,0,0,1.1,2.4,4.35,4.35,0,0,0,2.9.8A5.93,5.93,0,0,0,1158.73,203.49Z" transform="translate(0.01 0.01)"/><path class="cls-3" d="M1186.23,174.79a9.61,9.61,0,0,0-1.1,4.9v1.5h9v6.4h-9v22.3h-7.6v-22.3h-5.6v-5.3l5.6-1v-1.2c0-4.5,1-7.9,3-10.4s5-3.7,9.1-3.7a15.53,15.53,0,0,1,6.9,1.5l-2.3,6.3a10.75,10.75,0,0,0-4.2-1C1188.23,173,1186.93,173.59,1186.23,174.79Z" transform="translate(0.01 0.01)"/><path class="cls-3" d="M1224.13,198.09h-20.4a8,8,0,0,0,2.2,4.5,6.35,6.35,0,0,0,4.6,1.7,6.24,6.24,0,0,0,3.7-1.1,4.68,4.68,0,0,0,1.9-2.7h7.4a9.25,9.25,0,0,1-1.9,5.3,11.73,11.73,0,0,1-4.8,3.6,15.88,15.88,0,0,1-6.6,1.3,14.3,14.3,0,0,1-7.6-1.9,13.45,13.45,0,0,1-5-5.3,18.48,18.48,0,0,1,.1-15.7,13.27,13.27,0,0,1,5.1-5.4,14.43,14.43,0,0,1,7.5-1.9,14.75,14.75,0,0,1,7.4,1.8,11.59,11.59,0,0,1,4.8,5,15.84,15.84,0,0,1,1.7,7.4v3.4Zm-17.9-9.7a7.59,7.59,0,0,0-2.3,4h12.4a6.48,6.48,0,0,0-1.8-4,5.39,5.39,0,0,0-4.1-1.4A5.52,5.52,0,0,0,1206.23,188.39Z" transform="translate(0.01 0.01)"/><path class="cls-2" d="M1101,95.89a31.3,31.3,0,0,0-31.3-30.4h0a31.42,31.42,0,0,0,23.6,30.4h-.1v8.8a7.81,7.81,0,0,0,7.8,7.8V95.89Zm-16.7-13.7a24.69,24.69,0,0,1-4.8-6.8,24.49,24.49,0,0,1,11.6,11.6A24.69,24.69,0,0,1,1084.33,82.19Z" transform="translate(0.01 0.01)"/><path class="cls-2" d="M1121.53,99.59a31.3,31.3,0,0,0,30.4-31.3h0a31.42,31.42,0,0,0-30.4,23.6v-.1h-8.8a7.81,7.81,0,0,0-7.8,7.8Zm13.7-16.7a24.69,24.69,0,0,1,6.8-4.8,24.49,24.49,0,0,1-11.6,11.6A24.69,24.69,0,0,1,1135.23,82.89Z" transform="translate(0.01 0.01)"/><path class="cls-2" d="M1117.43,120.09a31.3,31.3,0,0,0,31.3,30.4h0a31.42,31.42,0,0,0-23.6-30.4h.1v-8.8a7.81,7.81,0,0,0-7.8-7.8v16.6Zm16.6,13.7a24.69,24.69,0,0,1,4.8,6.8,24.49,24.49,0,0,1-11.6-11.6A24.69,24.69,0,0,1,1134,133.79Z" transform="translate(0.01 0.01)"/><path class="cls-2" d="M1096.83,116.39a31.3,31.3,0,0,0-30.4,31.3h0a31.42,31.42,0,0,0,30.4-23.6v.1h8.8a7.81,7.81,0,0,0,7.8-7.8Zm-13.7,16.7a24.69,24.69,0,0,1-6.8,4.8,24.49,24.49,0,0,1,11.6-11.6A24.69,24.69,0,0,1,1083.13,133.09Z" transform="translate(0.01 0.01)"/><path class="cls-2" d="M1527.43,393.49a31.3,31.3,0,0,0-31.3-30.4h0a31.42,31.42,0,0,0,23.6,30.4h-.1v8.8a7.81,7.81,0,0,0,7.8,7.8v-16.6Zm-16.7-13.7a24.69,24.69,0,0,1-4.8-6.8,24.49,24.49,0,0,1,11.6,11.6A24.69,24.69,0,0,1,1510.73,379.79Z" transform="translate(0.01 0.01)"/><path class="cls-2" d="M1547.93,397.19a31.3,31.3,0,0,0,30.4-31.3h0a31.42,31.42,0,0,0-30.4,23.6v-.1h-8.8a7.81,7.81,0,0,0-7.8,7.8Zm13.7-16.7a24.69,24.69,0,0,1,6.8-4.8,24.49,24.49,0,0,1-11.6,11.6A24.69,24.69,0,0,1,1561.63,380.49Z" transform="translate(0.01 0.01)"/><path class="cls-2" d="M1543.83,417.79a31.3,31.3,0,0,0,31.3,30.4h0a31.42,31.42,0,0,0-23.6-30.4h.1V409a7.81,7.81,0,0,0-7.8-7.8v16.6Zm16.7,13.7a24.69,24.69,0,0,1,4.8,6.8,24.49,24.49,0,0,1-11.6-11.6A24.69,24.69,0,0,1,1560.53,431.49Z" transform="translate(0.01 0.01)"/><path class="cls-2" d="M1523.33,414.09a31.3,31.3,0,0,0-30.4,31.3h0a31.42,31.42,0,0,0,30.4-23.6v.1h8.8a7.81,7.81,0,0,0,7.8-7.8Zm-13.7,16.6a24.69,24.69,0,0,1-6.8,4.8,24.49,24.49,0,0,1,11.6-11.6A24.69,24.69,0,0,1,1509.63,430.69Z" transform="translate(0.01 0.01)"/><path class="cls-2" d="M1447.13,497.29h-14.7l-3.5,10h-8.1l15.1-40.1h9.2l13.7,40.1h-8.4Zm-12.2-6.9H1445l-4.7-14.8Z" transform="translate(0.01 0.01)"/><path class="cls-2" d="M1489.53,478.49v26.4c0,5.3-1.3,9.2-3.8,11.9s-6,3.9-10.4,3.9a15.71,15.71,0,0,1-9.5-2.7c-2.4-1.8-3.8-4.6-4.1-8.3h7.1a5.3,5.3,0,0,0,2.1,3.3,6.86,6.86,0,0,0,4.1,1.2,6.12,6.12,0,0,0,5.1-2.2,8.82,8.82,0,0,0,1.9-6v-1.1a10.7,10.7,0,0,1-7.9,3.2,12.45,12.45,0,0,1-7-1.9,12.76,12.76,0,0,1-4.7-5.3,18,18,0,0,1-1.7-7.9,17.15,17.15,0,0,1,1.8-8,12.75,12.75,0,0,1,4.8-5.2,12.49,12.49,0,0,1,6.5-1.8,12.63,12.63,0,0,1,5.1,1.1,11.08,11.08,0,0,1,4,3.1l.6-3.6h6Zm-7.6,11.4a7.69,7.69,0,0,0-2.3-3.9,6.44,6.44,0,0,0-4.2-1.4,6.53,6.53,0,0,0-5.2,2.3,10.42,10.42,0,0,0,0,12,6.45,6.45,0,0,0,5.2,2.2,6.87,6.87,0,0,0,4.3-1.3,5.69,5.69,0,0,0,2.2-3.6Z" transform="translate(0.01 0.01)"/><path class="cls-2" d="M1514.43,477.89l-.3,7.6a7.56,7.56,0,0,0-2.9-.5,7.4,7.4,0,0,0-3.6.9,6.78,6.78,0,0,0-2.8,2.5,7,7,0,0,0-1.1,3.8v14.9h-7.6v-28.7h6.3l.6,4.1a10.92,10.92,0,0,1,9.6-4.8C1513.33,477.79,1513.93,477.79,1514.43,477.89Z" transform="translate(0.01 0.01)"/><path class="cls-2" d="M1526,474.39h-7.6v-7.2h7.6Zm0,32.8h-7.6v-28.7h7.6Z" transform="translate(0.01 0.01)"/><path class="cls-2" d="M1540.43,506.39a14.44,14.44,0,0,1-6-4.5,12.88,12.88,0,0,1-2.5-7h8.2a6.56,6.56,0,0,0,2.7,4.7,9.9,9.9,0,0,0,6.2,1.7,9.63,9.63,0,0,0,5.7-1.5,4.64,4.64,0,0,0,2.1-4c0-2.5-1.8-4.1-5.2-4.9l-8.2-1.8c-3.4-.8-6-2-7.8-3.8a9.12,9.12,0,0,1-2.7-6.8,10.44,10.44,0,0,1,1.9-6.3,12.94,12.94,0,0,1,5.4-4.3,20.69,20.69,0,0,1,8.2-1.5,18.77,18.77,0,0,1,11.4,3.3,12.64,12.64,0,0,1,4.9,9.3h-8.1c-.4-4-3-5.9-8-5.9a9.39,9.39,0,0,0-5.4,1.3,4,4,0,0,0-2,3.5,3.47,3.47,0,0,0,1.3,2.9,11.44,11.44,0,0,0,4.1,1.7l7.9,1.8c7.3,1.6,10.9,5.2,10.9,10.8a12,12,0,0,1-2,6.9,11.78,11.78,0,0,1-5.7,4.5,22.25,22.25,0,0,1-8.5,1.5A21.61,21.61,0,0,1,1540.43,506.39Z" transform="translate(0.01 0.01)"/><path class="cls-2" d="M1591.73,480.79c2.2,2,3.3,5,3.3,9.1v17.3h-6l-.7-3.8a10.73,10.73,0,0,1-3.7,3.2,11.34,11.34,0,0,1-5.6,1.4,10.91,10.91,0,0,1-7.2-2.3,7.68,7.68,0,0,1-2.7-6.2,6.87,6.87,0,0,1,2.2-5.4,13.9,13.9,0,0,1,6.2-3.1,64.14,64.14,0,0,1,10-1.7v-.4a5.15,5.15,0,0,0-1.2-3.7,4.79,4.79,0,0,0-3.5-1.2,5.22,5.22,0,0,0-3.6,1.2,3.74,3.74,0,0,0-1.3,2.9h-7.6a8.75,8.75,0,0,1,1.6-5.3,10.37,10.37,0,0,1,4.5-3.7,15.1,15.1,0,0,1,6.5-1.3A12.69,12.69,0,0,1,1591.73,480.79Zm-6.7,20.1a6.76,6.76,0,0,0,2.3-4.3v-2.3a24.13,24.13,0,0,0-8,1.5c-1.8.8-2.7,1.9-2.7,3.4a2.78,2.78,0,0,0,1.1,2.4,4.35,4.35,0,0,0,2.9.8A6.71,6.71,0,0,0,1585,500.89Z" transform="translate(0.01 0.01)"/><path class="cls-2" d="M1612.53,472.09a9.61,9.61,0,0,0-1.1,4.9v1.5h9v6.4h-9v22.3h-7.6v-22.3h-5.6v-5.3l5.6-1v-1.2c0-4.5,1-7.9,3-10.4s5-3.7,9.1-3.7a15.53,15.53,0,0,1,6.9,1.5l-2.3,6.3a10.75,10.75,0,0,0-4.2-1C1614.53,470.29,1613.23,470.89,1612.53,472.09Z" transform="translate(0.01 0.01)"/><path class="cls-2" d="M1650.43,495.39H1630a8,8,0,0,0,2.2,4.5,6.35,6.35,0,0,0,4.6,1.7,6.24,6.24,0,0,0,3.7-1.1,4.68,4.68,0,0,0,1.9-2.7h7.4a9.25,9.25,0,0,1-1.9,5.3,11.73,11.73,0,0,1-4.8,3.6,15.88,15.88,0,0,1-6.6,1.3,14.3,14.3,0,0,1-7.6-1.9,13.45,13.45,0,0,1-5-5.3,18.48,18.48,0,0,1,.1-15.7,13.27,13.27,0,0,1,5.1-5.4,14.43,14.43,0,0,1,7.5-1.9,14.75,14.75,0,0,1,7.4,1.8,11.59,11.59,0,0,1,4.8,5,15.84,15.84,0,0,1,1.7,7.4v3.4Zm-17.9-9.7a7.59,7.59,0,0,0-2.3,4h12.4a6.48,6.48,0,0,0-1.8-4,5.39,5.39,0,0,0-4.1-1.4A5.52,5.52,0,0,0,1632.53,485.69Z" transform="translate(0.01 0.01)"/><rect class="cls-2" x="420.9" width="420.9" height="297.6"/><rect class="cls-3" y="297.6" width="420.9" height="297.6"/><path class="cls-1" d="M588.19,153.29h-14.7l-3.5,10h-8.1l15.1-40.1h9.2l13.7,40.1h-8.4Zm-12.2-6.9h10.1l-4.7-14.8Z" transform="translate(0.01 0.01)"/><path class="cls-1" d="M630.59,134.49v26.4c0,5.3-1.3,9.2-3.8,11.9s-6,3.9-10.4,3.9a15.71,15.71,0,0,1-9.5-2.7c-2.4-1.8-3.8-4.6-4.1-8.3h7.1A5.3,5.3,0,0,0,612,169a6.86,6.86,0,0,0,4.1,1.2,6.12,6.12,0,0,0,5.1-2.2,9.36,9.36,0,0,0,1.9-6v-1.1a10.7,10.7,0,0,1-7.9,3.2,12.45,12.45,0,0,1-7-1.9,12.76,12.76,0,0,1-4.7-5.3,18,18,0,0,1-1.7-7.9,17.15,17.15,0,0,1,1.8-8,12.75,12.75,0,0,1,4.8-5.2,12.49,12.49,0,0,1,6.5-1.8,12.63,12.63,0,0,1,5.1,1.1,12.3,12.3,0,0,1,4,3.1l.6-3.6h6Zm-7.5,11.4a7.69,7.69,0,0,0-2.3-3.9,6.44,6.44,0,0,0-4.2-1.4,6.53,6.53,0,0,0-5.2,2.3,10.42,10.42,0,0,0,0,12,6.45,6.45,0,0,0,5.2,2.2,6.87,6.87,0,0,0,4.3-1.3,5.69,5.69,0,0,0,2.2-3.6Z" transform="translate(0.01 0.01)"/><path class="cls-1" d="M655.49,133.89l-.3,7.6a7.56,7.56,0,0,0-2.9-.5,7.4,7.4,0,0,0-3.6.9,6.78,6.78,0,0,0-2.8,2.5,7,7,0,0,0-1.1,3.8v14.9h-7.6v-28.7h6.3l.6,4.1a10.92,10.92,0,0,1,9.6-4.8C654.39,133.79,655,133.79,655.49,133.89Z" transform="translate(0.01 0.01)"/><path class="cls-1" d="M667.09,130.39h-7.6v-7.2h7.6Zm0,32.8h-7.6v-28.7h7.6Z" transform="translate(0.01 0.01)"/><path class="cls-1" d="M681.49,162.39a14.44,14.44,0,0,1-6-4.5,12.88,12.88,0,0,1-2.5-7h8.2a6.56,6.56,0,0,0,2.7,4.7,9.9,9.9,0,0,0,6.2,1.7,9.63,9.63,0,0,0,5.7-1.5,4.64,4.64,0,0,0,2.1-4c0-2.5-1.8-4.1-5.3-4.9l-8.2-1.8c-3.4-.8-6-2-7.8-3.8a9.12,9.12,0,0,1-2.7-6.8,10.44,10.44,0,0,1,1.9-6.3,12.94,12.94,0,0,1,5.4-4.3,20.69,20.69,0,0,1,8.2-1.5,18.77,18.77,0,0,1,11.4,3.3,12.64,12.64,0,0,1,4.91,9.3h-8.1c-.4-4-3-5.9-8-5.9a9.39,9.39,0,0,0-5.4,1.3,4,4,0,0,0-2,3.5,3.49,3.49,0,0,0,1.29,2.9,11.6,11.6,0,0,0,4.1,1.7l7.9,1.8c7.3,1.6,10.91,5.2,10.91,10.8a11.93,11.93,0,0,1-7.6,11.4,22.25,22.25,0,0,1-8.5,1.5A22,22,0,0,1,681.49,162.39Z" transform="translate(0.01 0.01)"/><path class="cls-1" d="M732.79,136.79c2.2,2,3.3,5,3.3,9.1v17.3h-6l-.7-3.8a10.73,10.73,0,0,1-3.7,3.2,11.34,11.34,0,0,1-5.6,1.4,10.91,10.91,0,0,1-7.2-2.3,7.68,7.68,0,0,1-2.7-6.2,6.87,6.87,0,0,1,2.2-5.4,13.9,13.9,0,0,1,6.2-3.1,64.14,64.14,0,0,1,10-1.7v-.4a5.15,5.15,0,0,0-1.2-3.7,4.79,4.79,0,0,0-3.5-1.2,5.22,5.22,0,0,0-3.6,1.2,3.74,3.74,0,0,0-1.3,2.9h-7.6a8.75,8.75,0,0,1,1.6-5.3,10.37,10.37,0,0,1,4.5-3.7,15.1,15.1,0,0,1,6.5-1.3A12.69,12.69,0,0,1,732.79,136.79Zm-6.7,20a6.76,6.76,0,0,0,2.3-4.3v-2.3a24.13,24.13,0,0,0-8,1.5c-1.8.8-2.7,1.9-2.7,3.4a2.78,2.78,0,0,0,1.1,2.4,4.35,4.35,0,0,0,2.9.8A5.8,5.8,0,0,0,726.09,156.79Z" transform="translate(0.01 0.01)"/><path class="cls-1" d="M753.59,128.09a9.61,9.61,0,0,0-1.1,4.9v1.5h9v6.4h-9v22.3H745v-22.3h-5.6v-5.3l5.6-1v-1.2c0-4.5,1-7.9,3-10.4s5-3.7,9.1-3.7a15.53,15.53,0,0,1,6.9,1.5l-2.3,6.3a10.75,10.75,0,0,0-4.2-1A4.83,4.83,0,0,0,753.59,128.09Z" transform="translate(0.01 0.01)"/><path class="cls-1" d="M791.49,151.39h-20.4a8,8,0,0,0,2.2,4.5,6.35,6.35,0,0,0,4.6,1.7,6.24,6.24,0,0,0,3.7-1.1,4.68,4.68,0,0,0,1.9-2.7h7.4a9.25,9.25,0,0,1-1.9,5.3,12.67,12.67,0,0,1-4.8,3.6,15.88,15.88,0,0,1-6.6,1.3,14.3,14.3,0,0,1-7.6-1.9,12.78,12.78,0,0,1-5-5.3,18.48,18.48,0,0,1,.1-15.7,13.27,13.27,0,0,1,5.1-5.4,14.43,14.43,0,0,1,7.5-1.9,14.75,14.75,0,0,1,7.4,1.8,11.59,11.59,0,0,1,4.8,5,15.84,15.84,0,0,1,1.7,7.4v3.4Zm-17.9-9.7a7.59,7.59,0,0,0-2.3,4h12.4a6.48,6.48,0,0,0-1.8-4,5.39,5.39,0,0,0-4.1-1.4A5.8,5.8,0,0,0,773.59,141.69Z" transform="translate(0.01 0.01)"/><path class="cls-12" d="M496.29,132.79a31.3,31.3,0,0,0-31.3-30.4h0a31.42,31.42,0,0,0,23.6,30.4h-.1v8.8a7.81,7.81,0,0,0,7.8,7.8v-16.6Zm-16.6-13.7a24.69,24.69,0,0,1-4.8-6.8,24.49,24.49,0,0,1,11.6,11.6A24.69,24.69,0,0,1,479.69,119.09Z" transform="translate(0.01 0.01)"/><path class="cls-13" d="M516.89,136.49a31.3,31.3,0,0,0,30.4-31.3h0a31.42,31.42,0,0,0-30.4,23.6v-.1h-8.8a7.81,7.81,0,0,0-7.8,7.8Zm13.7-16.7a24.69,24.69,0,0,1,6.8-4.8,24.49,24.49,0,0,1-11.6,11.6A24.69,24.69,0,0,1,530.59,119.79Z" transform="translate(0.01 0.01)"/><path class="cls-14" d="M512.69,157.09a31.3,31.3,0,0,0,31.3,30.4h0a31.42,31.42,0,0,0-23.6-30.4h.1v-8.8a7.81,7.81,0,0,0-7.8-7.8v16.6Zm16.7,13.7a24.69,24.69,0,0,1,4.8,6.8,24.49,24.49,0,0,1-11.6-11.6A22.75,22.75,0,0,1,529.39,170.79Z" transform="translate(0.01 0.01)"/><path class="cls-15" d="M492.19,153.39a31.3,31.3,0,0,0-30.4,31.3h0a31.42,31.42,0,0,0,30.4-23.6v.1H501a7.81,7.81,0,0,0,7.8-7.8ZM478.49,170a24.69,24.69,0,0,1-6.8,4.8,24.49,24.49,0,0,1,11.6-11.6A24.69,24.69,0,0,1,478.49,170Z" transform="translate(0.01 0.01)"/><path class="cls-3" d="M170.39,153.29h-14.7l-3.5,10h-8.1l15.1-40.1h9.2l13.7,40.1h-8.4Zm-12.2-6.9h10.1l-4.7-14.8Z" transform="translate(0.01 0.01)"/><path class="cls-3" d="M212.89,134.49v26.4c0,5.3-1.3,9.2-3.8,11.9s-6,3.9-10.4,3.9a15.71,15.71,0,0,1-9.5-2.7c-2.4-1.8-3.8-4.6-4.1-8.3h7.1a5.3,5.3,0,0,0,2.1,3.3,6.86,6.86,0,0,0,4.1,1.2,6.12,6.12,0,0,0,5.1-2.2,8.82,8.82,0,0,0,1.9-6v-1.1a10.7,10.7,0,0,1-7.9,3.2,12.45,12.45,0,0,1-7-1.9,12.76,12.76,0,0,1-4.7-5.3,18,18,0,0,1-1.7-7.9,17.15,17.15,0,0,1,1.8-8,12.75,12.75,0,0,1,4.8-5.2,12.49,12.49,0,0,1,6.5-1.8,12.63,12.63,0,0,1,5.1,1.1,12.3,12.3,0,0,1,4,3.1l.6-3.6h6Zm-7.6,11.4A7.69,7.69,0,0,0,203,142a6.44,6.44,0,0,0-4.2-1.4,6.53,6.53,0,0,0-5.2,2.3,10.42,10.42,0,0,0,0,12,6.45,6.45,0,0,0,5.2,2.2,6.87,6.87,0,0,0,4.3-1.3,5.69,5.69,0,0,0,2.2-3.6Z" transform="translate(0.01 0.01)"/><path class="cls-3" d="M237.69,133.89l-.3,7.6a7.56,7.56,0,0,0-2.9-.5,7.4,7.4,0,0,0-3.6.9,6.78,6.78,0,0,0-2.8,2.5,7,7,0,0,0-1.1,3.8v14.9h-7.6v-28.7h6.3l.6,4.1a10.92,10.92,0,0,1,9.6-4.8C236.59,133.79,237.19,133.79,237.69,133.89Z" transform="translate(0.01 0.01)"/><path class="cls-3" d="M249.29,130.39h-7.6v-7.2h7.6Zm0,32.8h-7.6v-28.7h7.6Z" transform="translate(0.01 0.01)"/><path class="cls-3" d="M263.69,162.39a14.44,14.44,0,0,1-6-4.5,12.88,12.88,0,0,1-2.5-7h8.2a6.56,6.56,0,0,0,2.7,4.7,9.9,9.9,0,0,0,6.2,1.7,9.63,9.63,0,0,0,5.7-1.5,4.64,4.64,0,0,0,2.1-4c0-2.5-1.8-4.1-5.2-4.9l-8.2-1.8c-3.4-.8-6-2-7.8-3.8a9.12,9.12,0,0,1-2.7-6.8,10.44,10.44,0,0,1,1.9-6.3,12.94,12.94,0,0,1,5.4-4.3,20.69,20.69,0,0,1,8.2-1.5,18.77,18.77,0,0,1,11.4,3.3A12.64,12.64,0,0,1,288,135h-8.1c-.4-4-3-5.9-8-5.9a9.39,9.39,0,0,0-5.4,1.3,4,4,0,0,0-2,3.5,3.47,3.47,0,0,0,1.3,2.9,11.44,11.44,0,0,0,4.1,1.7l7.9,1.8c7.3,1.6,10.9,5.2,10.9,10.8a12,12,0,0,1-2,6.9,11.78,11.78,0,0,1-5.7,4.5,22.25,22.25,0,0,1-8.5,1.5A21.94,21.94,0,0,1,263.69,162.39Z" transform="translate(0.01 0.01)"/><path class="cls-3" d="M315,136.79c2.2,2,3.3,5,3.3,9.1v17.3h-6l-.7-3.8a10.73,10.73,0,0,1-3.7,3.2,11.34,11.34,0,0,1-5.6,1.4,10.91,10.91,0,0,1-7.2-2.3,7.68,7.68,0,0,1-2.7-6.2,6.87,6.87,0,0,1,2.2-5.4,13.9,13.9,0,0,1,6.2-3.1,64.14,64.14,0,0,1,10-1.7v-.4a5.15,5.15,0,0,0-1.2-3.7,4.79,4.79,0,0,0-3.5-1.2,5.22,5.22,0,0,0-3.6,1.2,3.74,3.74,0,0,0-1.3,2.9h-7.6a8.75,8.75,0,0,1,1.6-5.3,10.37,10.37,0,0,1,4.5-3.7,15.1,15.1,0,0,1,6.5-1.3A12.52,12.52,0,0,1,315,136.79Zm-6.7,20a6.76,6.76,0,0,0,2.3-4.3v-2.3a24.13,24.13,0,0,0-8,1.5c-1.8.8-2.7,1.9-2.7,3.4a2.78,2.78,0,0,0,1.1,2.4,4.35,4.35,0,0,0,2.9.8A5.8,5.8,0,0,0,308.29,156.79Z" transform="translate(0.01 0.01)"/><path class="cls-3" d="M335.79,128.09a9.61,9.61,0,0,0-1.1,4.9v1.5h9v6.4h-9v22.3h-7.6v-22.3h-5.6v-5.3l5.6-1v-1.2c0-4.5,1-7.9,3-10.4s5-3.7,9.1-3.7a15.53,15.53,0,0,1,6.9,1.5l-2.3,6.3a10.75,10.75,0,0,0-4.2-1A4.78,4.78,0,0,0,335.79,128.09Z" transform="translate(0.01 0.01)"/><path class="cls-3" d="M373.69,151.39h-20.4a8,8,0,0,0,2.2,4.5,6.35,6.35,0,0,0,4.6,1.7,6.24,6.24,0,0,0,3.7-1.1,4.68,4.68,0,0,0,1.9-2.7h7.4a9.25,9.25,0,0,1-1.9,5.3,11.73,11.73,0,0,1-4.8,3.6,15.88,15.88,0,0,1-6.6,1.3,14.3,14.3,0,0,1-7.6-1.9,13.45,13.45,0,0,1-5-5.3,18.48,18.48,0,0,1,.1-15.7,13.27,13.27,0,0,1,5.1-5.4,14.43,14.43,0,0,1,7.5-1.9,14.75,14.75,0,0,1,7.4,1.8,11.59,11.59,0,0,1,4.8,5,15.84,15.84,0,0,1,1.7,7.4v3.4Zm-17.9-9.7a7.59,7.59,0,0,0-2.3,4h12.4a6.48,6.48,0,0,0-1.8-4,5.39,5.39,0,0,0-4.1-1.4A5.8,5.8,0,0,0,355.79,141.69Z" transform="translate(0.01 0.01)"/><path class="cls-2" d="M78.59,132.79a31.3,31.3,0,0,0-31.3-30.4h0a31.42,31.42,0,0,0,23.6,30.4h-.1v8.8a7.81,7.81,0,0,0,7.8,7.8v-16.6Zm-16.7-13.7a24.69,24.69,0,0,1-4.8-6.8,24.49,24.49,0,0,1,11.6,11.6A24.69,24.69,0,0,1,61.89,119.09Z" transform="translate(0.01 0.01)"/><path class="cls-2" d="M99.09,136.49a31.3,31.3,0,0,0,30.4-31.3h0a31.42,31.42,0,0,0-30.4,23.6v-.1h-8.8a7.81,7.81,0,0,0-7.8,7.8Zm13.7-16.7a24.69,24.69,0,0,1,6.8-4.8,24.49,24.49,0,0,1-11.6,11.6A24.69,24.69,0,0,1,112.79,119.79Z" transform="translate(0.01 0.01)"/><path class="cls-2" d="M94.89,157.09a31.3,31.3,0,0,0,31.3,30.4h0a31.42,31.42,0,0,0-23.6-30.4h.1v-8.8a7.81,7.81,0,0,0-7.8-7.8v16.6Zm16.7,13.7a24.69,24.69,0,0,1,4.8,6.8,24.49,24.49,0,0,1-11.6-11.6A22.75,22.75,0,0,1,111.59,170.79Z" transform="translate(0.01 0.01)"/><path class="cls-2" d="M74.39,153.39A31.3,31.3,0,0,0,44,184.69h0a31.42,31.42,0,0,0,30.4-23.6v.1h8.8a7.81,7.81,0,0,0,7.8-7.8ZM60.69,170a24.69,24.69,0,0,1-6.8,4.8,24.49,24.49,0,0,1,11.6-11.6A24.69,24.69,0,0,1,60.69,170Z" transform="translate(0.01 0.01)"/><path class="cls-1" d="M170.39,451.19h-14.7l-3.5,10h-8.1l15.1-40.1h9.2l13.7,40.1h-8.4Zm-12.2-6.8h10.1l-4.7-14.8Z" transform="translate(0.01 0.01)"/><path class="cls-1" d="M212.89,432.49v26.4c0,5.3-1.3,9.2-3.8,11.9s-6,3.9-10.4,3.9a15.71,15.71,0,0,1-9.5-2.7c-2.4-1.8-3.8-4.6-4.1-8.3h7.1a5.3,5.3,0,0,0,2.1,3.3,6.86,6.86,0,0,0,4.1,1.2,6.12,6.12,0,0,0,5.1-2.2,8.82,8.82,0,0,0,1.9-6v-1.1a10.7,10.7,0,0,1-7.9,3.2,12.45,12.45,0,0,1-7-1.9,12.76,12.76,0,0,1-4.7-5.3,18,18,0,0,1-1.7-7.9,17.15,17.15,0,0,1,1.8-8,12.75,12.75,0,0,1,4.8-5.2,12.49,12.49,0,0,1,6.5-1.8,12.63,12.63,0,0,1,5.1,1.1,12.3,12.3,0,0,1,4,3.1l.6-3.6h6Zm-7.6,11.4A7.69,7.69,0,0,0,203,440a5.94,5.94,0,0,0-4.2-1.4,6.53,6.53,0,0,0-5.2,2.3,10.42,10.42,0,0,0,0,12,6.45,6.45,0,0,0,5.2,2.2,6.87,6.87,0,0,0,4.3-1.3,5.69,5.69,0,0,0,2.2-3.6Z" transform="translate(0.01 0.01)"/><path class="cls-1" d="M237.69,431.89l-.3,7.6a7.56,7.56,0,0,0-2.9-.5,7.4,7.4,0,0,0-3.6.9,6.78,6.78,0,0,0-2.8,2.5,7,7,0,0,0-1.1,3.8v14.9h-7.6v-28.7h6.3l.6,4.1a10.92,10.92,0,0,1,9.6-4.8C236.59,431.79,237.19,431.79,237.69,431.89Z" transform="translate(0.01 0.01)"/><path class="cls-1" d="M249.29,428.29h-7.6v-7.2h7.6Zm0,32.9h-7.6v-28.7h7.6Z" transform="translate(0.01 0.01)"/><path class="cls-1" d="M263.69,460.39a14.44,14.44,0,0,1-6-4.5,12.6,12.6,0,0,1-2.5-7h8.2a6.56,6.56,0,0,0,2.7,4.7,9.9,9.9,0,0,0,6.2,1.7,9.63,9.63,0,0,0,5.7-1.5,4.64,4.64,0,0,0,2.1-4c0-2.5-1.8-4.1-5.2-4.9l-8.2-1.8c-3.4-.8-6-2-7.8-3.8a9.12,9.12,0,0,1-2.7-6.8,10.44,10.44,0,0,1,1.9-6.3,12.94,12.94,0,0,1,5.4-4.3,20.69,20.69,0,0,1,8.2-1.5,18.77,18.77,0,0,1,11.4,3.3A12.64,12.64,0,0,1,288,433h-8.1c-.4-4-3-5.9-8-5.9a9.39,9.39,0,0,0-5.4,1.3,4,4,0,0,0-2,3.5,3.47,3.47,0,0,0,1.3,2.9,11.44,11.44,0,0,0,4.1,1.7l7.9,1.8c7.3,1.6,10.9,5.2,10.9,10.8a12,12,0,0,1-2,6.9,11.78,11.78,0,0,1-5.7,4.5,22.25,22.25,0,0,1-8.5,1.5A23.81,23.81,0,0,1,263.69,460.39Z" transform="translate(0.01 0.01)"/><path class="cls-1" d="M315,434.79c2.2,2,3.3,5,3.3,9.1v17.3h-6l-.7-3.8a10.73,10.73,0,0,1-3.7,3.2,11.34,11.34,0,0,1-5.6,1.4,10.91,10.91,0,0,1-7.2-2.3,7.68,7.68,0,0,1-2.7-6.2,6.87,6.87,0,0,1,2.2-5.4,13.9,13.9,0,0,1,6.2-3.1,66.32,66.32,0,0,1,10-1.7v-.4a5.15,5.15,0,0,0-1.2-3.7,4.79,4.79,0,0,0-3.5-1.2,5.22,5.22,0,0,0-3.6,1.2,3.74,3.74,0,0,0-1.3,2.9h-7.6a8.75,8.75,0,0,1,1.6-5.3,10.37,10.37,0,0,1,4.5-3.7,15.1,15.1,0,0,1,6.5-1.3A12.52,12.52,0,0,1,315,434.79Zm-6.7,20a6.76,6.76,0,0,0,2.3-4.3v-2.3a24.13,24.13,0,0,0-8,1.5c-1.8.8-2.7,1.9-2.7,3.4a2.78,2.78,0,0,0,1.1,2.4,4.35,4.35,0,0,0,2.9.8A5.8,5.8,0,0,0,308.29,454.79Z" transform="translate(0.01 0.01)"/><path class="cls-1" d="M335.79,426.09a9.61,9.61,0,0,0-1.1,4.9v1.5h9v6.4h-9v22.3h-7.6v-22.3h-5.6v-5.2l5.6-1v-1.2c0-4.5,1-7.9,3-10.4s5-3.7,9.1-3.7a15.53,15.53,0,0,1,6.9,1.5l-2.3,6.3a10.75,10.75,0,0,0-4.2-1A4.45,4.45,0,0,0,335.79,426.09Z" transform="translate(0.01 0.01)"/><path class="cls-1" d="M373.69,449.29h-20.4a8,8,0,0,0,2.2,4.5,6.35,6.35,0,0,0,4.6,1.7,6.24,6.24,0,0,0,3.7-1.1,4.68,4.68,0,0,0,1.9-2.7h7.4a9.25,9.25,0,0,1-1.9,5.3,11.73,11.73,0,0,1-4.8,3.6,15.88,15.88,0,0,1-6.6,1.3,14.3,14.3,0,0,1-7.6-1.9,13.45,13.45,0,0,1-5-5.3,18.48,18.48,0,0,1,.1-15.7,13.27,13.27,0,0,1,5.1-5.4,14.43,14.43,0,0,1,7.5-1.9,14.75,14.75,0,0,1,7.4,1.8,11.59,11.59,0,0,1,4.8,5,16.14,16.14,0,0,1,1.7,7.4v3.4Zm-17.9-9.7a7.59,7.59,0,0,0-2.3,4h12.4a6.48,6.48,0,0,0-1.8-4,5.39,5.39,0,0,0-4.1-1.4A6.85,6.85,0,0,0,355.79,439.59Z" transform="translate(0.01 0.01)"/><path class="cls-2" d="M78.59,430.79a31.3,31.3,0,0,0-31.3-30.4h0a31.42,31.42,0,0,0,23.6,30.4h-.1v8.8a7.81,7.81,0,0,0,7.8,7.8v-16.6Zm-16.7-13.7a24.69,24.69,0,0,1-4.8-6.8,24.49,24.49,0,0,1,11.6,11.6A24.69,24.69,0,0,1,61.89,417.09Z" transform="translate(0.01 0.01)"/><path class="cls-2" d="M99.09,434.49a31.3,31.3,0,0,0,30.4-31.3h0a31.42,31.42,0,0,0-30.4,23.6v-.1h-8.8a7.81,7.81,0,0,0-7.8,7.8Zm13.7-16.7a24.69,24.69,0,0,1,6.8-4.8,24.49,24.49,0,0,1-11.6,11.6A24.69,24.69,0,0,1,112.79,417.79Z" transform="translate(0.01 0.01)"/><path class="cls-2" d="M94.89,455a31.3,31.3,0,0,0,31.3,30.4h0a31.42,31.42,0,0,0-23.6-30.4h.1v-8.8a7.81,7.81,0,0,0-7.8-7.8V455Zm16.7,13.7a24.69,24.69,0,0,1,4.8,6.8,24.49,24.49,0,0,1-11.6-11.6A24.69,24.69,0,0,1,111.59,468.69Z" transform="translate(0.01 0.01)"/><path class="cls-2" d="M74.39,451.29A31.39,31.39,0,0,0,44,482.69h0a31.42,31.42,0,0,0,30.4-23.6v.1h8.8a7.81,7.81,0,0,0,7.8-7.8l-16.6-.1ZM60.69,468a24.69,24.69,0,0,1-6.8,4.8,24.49,24.49,0,0,1,11.6-11.6A24.69,24.69,0,0,1,60.69,468Z" transform="translate(0.01 0.01)"/><path class="cls-2" d="M585.79,451.19h-14.7l-3.5,10h-8.1l15.1-40.1h9.2l13.7,40.1H589Zm-12.2-6.8h10.1l-4.7-14.8Z" transform="translate(0.01 0.01)"/><path class="cls-2" d="M628.19,432.49v26.4c0,5.3-1.3,9.2-3.8,11.9s-6,3.9-10.4,3.9a15.71,15.71,0,0,1-9.5-2.7c-2.4-1.8-3.8-4.6-4.1-8.3h7.1a5.3,5.3,0,0,0,2.1,3.3,6.86,6.86,0,0,0,4.1,1.2,6.12,6.12,0,0,0,5.1-2.2,8.82,8.82,0,0,0,1.9-6v-1.1a10.7,10.7,0,0,1-7.9,3.2,12.45,12.45,0,0,1-7-1.9,12.76,12.76,0,0,1-4.7-5.3,18,18,0,0,1-1.7-7.9,17.15,17.15,0,0,1,1.8-8,12.75,12.75,0,0,1,4.8-5.2,12.49,12.49,0,0,1,6.5-1.8,12.63,12.63,0,0,1,5.1,1.1,12.3,12.3,0,0,1,4,3.1l.6-3.6h6Zm-7.6,11.4a7.69,7.69,0,0,0-2.3-3.9,5.94,5.94,0,0,0-4.2-1.4,6.53,6.53,0,0,0-5.2,2.3,10.42,10.42,0,0,0,0,12,6.45,6.45,0,0,0,5.2,2.2,6.87,6.87,0,0,0,4.3-1.3,5.69,5.69,0,0,0,2.2-3.6Z" transform="translate(0.01 0.01)"/><path class="cls-2" d="M653.09,431.89l-.3,7.6a7.56,7.56,0,0,0-2.9-.5,7.4,7.4,0,0,0-3.6.9,6.78,6.78,0,0,0-2.8,2.5,7,7,0,0,0-1.1,3.8v14.9h-7.6v-28.7h6.3l.6,4.1a10.92,10.92,0,0,1,9.6-4.8C652,431.79,652.59,431.79,653.09,431.89Z" transform="translate(0.01 0.01)"/><path class="cls-2" d="M664.69,428.29h-7.6v-7.2h7.6Zm0,32.9h-7.6v-28.7h7.6Z" transform="translate(0.01 0.01)"/><path class="cls-2" d="M679.09,460.39a14.44,14.44,0,0,1-6-4.5,12.6,12.6,0,0,1-2.5-7h8.2a6.56,6.56,0,0,0,2.7,4.7,9.9,9.9,0,0,0,6.2,1.7,9.63,9.63,0,0,0,5.7-1.5,4.64,4.64,0,0,0,2.1-4c0-2.5-1.8-4.1-5.2-4.9l-8.3-1.8c-3.4-.8-6-2-7.8-3.8a9.12,9.12,0,0,1-2.7-6.8,10.44,10.44,0,0,1,1.9-6.3,12.94,12.94,0,0,1,5.4-4.3,20.69,20.69,0,0,1,8.2-1.5,18.77,18.77,0,0,1,11.4,3.3,12.64,12.64,0,0,1,4.9,9.3H695.2c-.41-4-3-5.9-8-5.9a9.44,9.44,0,0,0-5.41,1.3,4,4,0,0,0-2,3.5,3.5,3.5,0,0,0,1.3,2.9,11.44,11.44,0,0,0,4.1,1.7l7.9,1.8c7.3,1.6,10.9,5.2,10.9,10.8a12,12,0,0,1-2,6.9,11.73,11.73,0,0,1-5.7,4.5,22.25,22.25,0,0,1-8.5,1.5A23.27,23.27,0,0,1,679.09,460.39Z" transform="translate(0.01 0.01)"/><path class="cls-2" d="M730.39,434.79c2.2,2,3.3,5,3.3,9.1v17.3h-6l-.7-3.8a10.73,10.73,0,0,1-3.7,3.2,11.34,11.34,0,0,1-5.6,1.4,10.91,10.91,0,0,1-7.2-2.3,7.68,7.68,0,0,1-2.7-6.2,6.87,6.87,0,0,1,2.2-5.4,13.9,13.9,0,0,1,6.2-3.1,66.32,66.32,0,0,1,10-1.7v-.4a5.15,5.15,0,0,0-1.2-3.7,4.79,4.79,0,0,0-3.5-1.2,5.22,5.22,0,0,0-3.6,1.2,3.74,3.74,0,0,0-1.3,2.9H709a8.75,8.75,0,0,1,1.6-5.3,10.37,10.37,0,0,1,4.5-3.7,15.1,15.1,0,0,1,6.5-1.3A12.69,12.69,0,0,1,730.39,434.79Zm-6.7,20a6.76,6.76,0,0,0,2.3-4.3v-2.3a24.13,24.13,0,0,0-8,1.5c-1.8.8-2.7,1.9-2.7,3.4a2.78,2.78,0,0,0,1.1,2.4,4.35,4.35,0,0,0,2.9.8A5.8,5.8,0,0,0,723.69,454.79Z" transform="translate(0.01 0.01)"/><path class="cls-2" d="M751.19,426.09a9.61,9.61,0,0,0-1.1,4.9v1.5h9v6.4h-9v22.3h-7.6v-22.3h-5.6v-5.2l5.6-1v-1.2c0-4.5,1-7.9,3-10.4s5-3.7,9.1-3.7a15.53,15.53,0,0,1,6.9,1.5l-2.3,6.3a10.75,10.75,0,0,0-4.2-1A4.33,4.33,0,0,0,751.19,426.09Z" transform="translate(0.01 0.01)"/><path class="cls-2" d="M789.09,449.29h-20.4a8,8,0,0,0,2.2,4.5,6.35,6.35,0,0,0,4.6,1.7,6.24,6.24,0,0,0,3.7-1.1,4.68,4.68,0,0,0,1.9-2.7h7.4a9.25,9.25,0,0,1-1.9,5.3,11.73,11.73,0,0,1-4.8,3.6,15.88,15.88,0,0,1-6.6,1.3,14.3,14.3,0,0,1-7.6-1.9,13.45,13.45,0,0,1-5-5.3,18.48,18.48,0,0,1,.1-15.7,13.27,13.27,0,0,1,5.1-5.4,14.43,14.43,0,0,1,7.5-1.9,14.75,14.75,0,0,1,7.4,1.8,11.59,11.59,0,0,1,4.8,5,16.14,16.14,0,0,1,1.7,7.4v3.4Zm-17.9-9.7a7.59,7.59,0,0,0-2.3,4h12.4a6.48,6.48,0,0,0-1.8-4,5.39,5.39,0,0,0-4.1-1.4A6.44,6.44,0,0,0,771.19,439.59Z" transform="translate(0.01 0.01)"/><path class="cls-2" d="M493.89,430.79a31.3,31.3,0,0,0-31.3-30.4h0a31.42,31.42,0,0,0,23.6,30.4h-.1v8.8a7.81,7.81,0,0,0,7.8,7.8v-16.6Zm-16.7-13.7a24.69,24.69,0,0,1-4.8-6.8,24.49,24.49,0,0,1,11.6,11.6A28.08,28.08,0,0,1,477.19,417.09Z" transform="translate(0.01 0.01)"/><path class="cls-2" d="M514.49,434.49a31.3,31.3,0,0,0,30.4-31.3h0a31.42,31.42,0,0,0-30.4,23.6v-.1h-8.8a7.81,7.81,0,0,0-7.8,7.8Zm13.7-16.7A24.69,24.69,0,0,1,535,413a24.49,24.49,0,0,1-11.6,11.6A24.69,24.69,0,0,1,528.19,417.79Z" transform="translate(0.01 0.01)"/><path class="cls-2" d="M510.29,455a31.3,31.3,0,0,0,31.3,30.4h0A31.42,31.42,0,0,0,518,455h.1v-8.8a7.81,7.81,0,0,0-7.8-7.8V455Zm16.7,13.7a24.69,24.69,0,0,1,4.8,6.8,24.49,24.49,0,0,1-11.6-11.6A24.69,24.69,0,0,1,527,468.69Z" transform="translate(0.01 0.01)"/><path class="cls-2" d="M489.79,451.29a31.3,31.3,0,0,0-30.4,31.3h0a31.42,31.42,0,0,0,30.4-23.6v.1h8.8a7.81,7.81,0,0,0,7.8-7.8ZM476.09,468a24.69,24.69,0,0,1-6.8,4.8,24.49,24.49,0,0,1,11.6-11.6A24.69,24.69,0,0,1,476.09,468Z" transform="translate(0.01 0.01)"/></svg>