<svg width="3286" height="1080" viewBox="0 0 3286 1080" fill="none" xmlns="http://www.w3.org/2000/svg">
<g clip-path="url(#clip0_1303_12411)">
<rect width="3286" height="1080" fill="white"/>
<path d="M1643.14 0H0V1080H1643.14V0Z" fill="white"/>
<path d="M3286 0H2464.53V539.909H3286V0Z" fill="#26A69A"/>
<path d="M2464.33 539.909H1642.86V1079.82H2464.33V539.909Z" fill="#2F2F2F"/>
<path d="M2853.89 179.244C2853.43 164.469 2846.8 150.441 2835.39 140.143C2823.98 129.844 2808.71 124.086 2792.8 124.092V124.092C2792.82 136.731 2797.35 149.007 2805.69 158.99C2814.02 168.974 2825.69 176.098 2838.86 179.244H2838.67V195.209C2838.67 198.961 2840.28 202.557 2843.13 205.21C2845.99 207.863 2849.86 209.355 2853.89 209.36V179.244ZM2821.3 154.389C2817.45 150.8 2814.28 146.628 2811.93 142.053C2821.85 146.44 2829.85 153.872 2834.57 163.098C2829.65 160.914 2825.16 157.969 2821.3 154.389V154.389Z" fill="url(#paint0_linear_1303_12411)"/>
<path d="M2894.1 185.957C2909.99 185.532 2925.08 179.362 2936.16 168.758C2947.24 158.155 2953.44 143.953 2953.43 129.172V129.172C2939.83 129.184 2926.63 133.397 2915.89 141.147C2905.15 148.898 2897.48 159.746 2894.1 171.987V171.806H2876.92C2872.89 171.811 2869.02 173.303 2866.16 175.956C2863.31 178.609 2861.7 182.205 2861.7 185.957H2894.1ZM2920.84 155.659C2924.7 152.079 2929.18 149.135 2934.11 146.951C2929.39 156.177 2921.39 163.609 2911.47 167.996C2913.82 163.421 2916.98 159.249 2920.84 155.659V155.659Z" fill="url(#paint1_linear_1303_12411)"/>
<path d="M2885.9 223.166C2886.36 237.942 2892.99 251.969 2904.4 262.268C2915.81 272.566 2931.09 278.324 2946.99 278.318V278.318C2946.97 265.68 2942.44 253.403 2934.11 243.42C2925.77 233.436 2914.1 226.312 2900.93 223.166H2901.12V207.201C2901.12 203.45 2899.51 199.853 2896.66 197.2C2893.8 194.548 2889.94 193.055 2885.9 193.05V223.166ZM2918.49 248.021C2922.34 251.611 2925.51 255.782 2927.86 260.358C2917.94 255.971 2909.94 248.538 2905.22 239.313C2910.14 241.491 2914.63 244.429 2918.49 248.003V248.021Z" fill="url(#paint2_linear_1303_12411)"/>
<path d="M2845.89 216.435C2829.99 216.86 2814.9 223.03 2803.82 233.634C2792.75 244.237 2786.55 258.439 2786.56 273.22V273.22C2800.15 273.208 2813.36 268.995 2824.1 261.245C2834.84 253.494 2842.51 242.646 2845.89 230.405V230.586H2863.06C2867.1 230.581 2870.97 229.089 2873.82 226.436C2876.68 223.784 2878.28 220.187 2878.29 216.435H2845.89ZM2819.15 246.733C2815.29 250.313 2810.8 253.257 2805.88 255.441C2810.6 246.215 2818.59 238.783 2828.52 234.396C2826.17 238.978 2823 243.156 2819.15 246.751V246.733Z" fill="url(#paint3_linear_1303_12411)"/>
<path d="M2697.36 367.378H2668.67L2661.84 385.52H2646.03L2675.51 312.77H2693.46L2720.2 385.52H2703.81L2697.36 367.378ZM2673.36 354.86H2693.07L2683.9 328.009L2673.36 354.86Z" fill="white"/>
<path d="M2780.12 333.452V381.347C2780.12 390.962 2777.58 398.038 2772.7 402.936C2767.82 407.835 2760.99 410.012 2752.4 410.012C2745.82 410.274 2739.31 408.556 2733.86 405.113C2729.18 401.848 2726.44 396.768 2725.86 390.055H2739.72C2740.21 392.464 2741.68 394.605 2743.82 396.042C2746.17 397.541 2748.97 398.304 2751.82 398.219C2753.7 398.331 2755.58 398.027 2757.31 397.334C2759.04 396.64 2760.57 395.576 2761.77 394.228C2764.4 391.147 2765.72 387.272 2765.48 383.343V381.347C2763.47 383.245 2761.07 384.74 2758.42 385.739C2755.77 386.737 2752.92 387.219 2750.06 387.153C2745.24 387.29 2740.48 386.09 2736.4 383.706C2732.43 381.37 2729.25 378.036 2727.23 374.09C2724.97 369.608 2723.83 364.707 2723.91 359.758C2723.8 354.727 2725 349.747 2727.42 345.244C2729.52 341.341 2732.77 338.07 2736.79 335.811C2740.62 333.661 2745 332.531 2749.47 332.545C2752.91 332.559 2756.3 333.239 2759.43 334.541C2762.42 335.892 2765.08 337.807 2767.24 340.165L2768.41 333.633H2780.12V333.452ZM2765.28 353.953C2764.59 351.229 2763.02 348.763 2760.79 346.877C2758.47 345.157 2755.57 344.257 2752.6 344.337C2750.68 344.277 2748.77 344.62 2747.01 345.343C2745.25 346.066 2743.69 347.148 2742.45 348.51C2740.03 351.696 2738.74 355.498 2738.74 359.395C2738.74 363.292 2740.03 367.094 2742.45 370.28C2743.7 371.618 2745.27 372.672 2747.03 373.363C2748.79 374.055 2750.69 374.365 2752.6 374.272C2755.6 374.382 2758.56 373.551 2760.99 371.913C2763.27 370.328 2764.81 367.99 2765.28 365.382V353.953Z" fill="white"/>
<path d="M2828.52 332.182L2827.93 345.97C2826.13 345.326 2824.21 345.018 2822.27 345.063C2819.82 345.044 2817.4 345.606 2815.25 346.696C2813 347.699 2811.11 349.272 2809.78 351.231C2808.37 353.29 2807.62 355.683 2807.64 358.125V385.157H2792.74V333.089H2805.04L2806.21 340.528C2808.26 337.699 2811.07 335.412 2814.35 333.886C2817.63 332.36 2821.28 331.648 2824.95 331.819C2826.13 332.013 2827.32 332.134 2828.52 332.182V332.182Z" fill="white"/>
<path d="M2851.16 325.832H2836.33V312.77H2851.16V325.832ZM2851.16 385.52H2836.33V333.452H2851.16V385.52Z" fill="white"/>
<path d="M2879.26 383.887C2874.65 382.172 2870.61 379.356 2867.55 375.723C2864.62 372.028 2862.92 367.611 2862.67 363.024H2878.68C2878.85 364.712 2879.41 366.346 2880.32 367.817C2881.23 369.287 2882.47 370.56 2883.95 371.55C2887.5 373.801 2891.76 374.886 2896.05 374.635C2899.97 374.831 2903.86 373.879 2907.17 371.913C2908.47 371.129 2909.52 370.05 2910.24 368.78C2910.95 367.51 2911.31 366.09 2911.27 364.656C2911.27 360.121 2907.76 357.218 2901.12 355.767L2885.12 352.501C2878.48 351.05 2873.41 348.873 2869.9 345.607C2868.15 344 2866.78 342.075 2865.87 339.952C2864.96 337.828 2864.54 335.554 2864.63 333.271C2864.5 329.189 2865.8 325.18 2868.33 321.841C2871.02 318.402 2874.67 315.705 2878.87 314.04C2883.95 312.133 2889.4 311.207 2894.88 311.319C2902.8 311.025 2910.6 313.126 2917.13 317.306C2919.93 319.315 2922.24 321.862 2923.89 324.774C2925.54 327.685 2926.49 330.892 2926.69 334.178H2910.88C2910.1 326.921 2905.03 323.474 2895.27 323.474C2891.58 323.254 2887.91 324.076 2884.73 325.832C2883.53 326.475 2882.54 327.401 2881.85 328.517C2881.17 329.632 2880.81 330.897 2880.82 332.182C2880.77 333.183 2880.97 334.183 2881.41 335.099C2881.85 336.014 2882.52 336.818 2883.36 337.443C2885.79 338.947 2888.51 339.995 2891.36 340.527L2906.78 343.793C2921.03 346.696 2928.06 353.227 2928.06 363.386C2928.16 367.832 2926.8 372.2 2924.15 375.905C2921.46 379.647 2917.57 382.504 2913.03 384.068C2907.74 385.973 2902.11 386.898 2896.44 386.79C2890.56 386.929 2884.71 385.941 2879.26 383.887V383.887Z" fill="white"/>
<path d="M2979.39 337.461C2983.68 341.09 2985.83 346.533 2985.83 353.971V385.357H2974.12L2972.75 378.463C2970.86 380.889 2968.39 382.876 2965.53 384.268C2962.18 385.977 2958.42 386.852 2954.6 386.808C2949.53 387.018 2944.55 385.538 2940.55 382.635C2938.8 381.259 2937.42 379.529 2936.51 377.579C2935.6 375.63 2935.17 373.512 2935.28 371.387C2935.18 369.562 2935.51 367.737 2936.25 366.044C2936.99 364.351 2938.13 362.831 2939.57 361.591C2943.03 358.796 2947.19 356.861 2951.67 355.966C2958.08 354.461 2964.61 353.43 2971.19 352.882V352.157C2971.38 349.721 2970.54 347.311 2968.85 345.444C2967.92 344.678 2966.84 344.091 2965.67 343.718C2964.49 343.344 2963.25 343.191 2962.02 343.267C2959.46 343.148 2956.96 343.925 2954.99 345.444C2954.18 346.094 2953.53 346.902 2953.09 347.812C2952.65 348.721 2952.43 349.709 2952.45 350.705H2937.62C2937.51 347.27 2938.61 343.896 2940.74 341.09C2942.92 338.118 2945.97 335.789 2949.53 334.377C2953.51 332.727 2957.85 331.922 2962.21 332.019C2968.48 331.717 2974.63 333.665 2979.39 337.461V337.461ZM2966.31 373.927C2968.8 371.937 2970.4 369.155 2970.8 366.126V361.953C2965.47 362.032 2960.19 362.952 2955.19 364.675C2951.67 366.126 2949.92 368.122 2949.92 370.843C2949.86 371.677 2950.02 372.512 2950.4 373.272C2950.77 374.032 2951.34 374.694 2952.06 375.197C2953.7 376.291 2955.71 376.806 2957.72 376.648C2959.28 376.74 2960.84 376.545 2962.31 376.075C2963.78 375.605 2965.14 374.869 2966.31 373.909V373.927Z" fill="white"/>
<path d="M3019.98 321.66C3018.43 324.394 3017.69 327.462 3017.84 330.549V333.271H3035.4V344.882H3017.84V385.338H3003V344.882H2992.07V335.266L3003 333.452V331.275C3003 323.111 3004.95 316.943 3008.86 312.407C3012.76 307.872 3018.62 305.695 3026.62 305.695C3031.27 305.628 3035.88 306.56 3040.08 308.416L3035.6 319.845C3033.02 318.732 3030.23 318.114 3027.4 318.031C3025.94 318.056 3024.52 318.398 3023.23 319.028C3021.94 319.658 3020.83 320.559 3019.98 321.66Z" fill="white"/>
<path d="M3093.95 363.931H3054.14C3054.59 367.009 3056.1 369.871 3058.43 372.095C3059.63 373.136 3061.04 373.945 3062.59 374.475C3064.13 375.004 3065.77 375.244 3067.41 375.179C3069.98 375.24 3072.51 374.541 3074.63 373.183C3076.47 372.023 3077.78 370.282 3078.34 368.285H3092.78C3092.65 371.77 3091.35 375.131 3089.07 377.9C3086.61 380.795 3083.38 383.046 3079.7 384.431C3075.64 386.064 3071.25 386.868 3066.82 386.79C3061.63 386.947 3056.49 385.753 3051.99 383.343C3047.85 381.033 3044.47 377.706 3042.23 373.727C3040.01 369.258 3038.88 364.388 3038.91 359.466C3038.95 354.543 3040.15 349.688 3042.43 345.244C3044.67 341.165 3048.13 337.766 3052.38 335.448C3056.83 333.081 3061.89 331.89 3067.02 332.001C3072.06 331.895 3077.04 333.021 3081.46 335.266C3085.51 337.331 3088.77 340.496 3090.83 344.337C3093.09 348.496 3094.23 353.104 3094.15 357.762V363.931H3093.95ZM3059.02 346.333C3056.75 348.26 3055.18 350.796 3054.53 353.59H3078.73C3078.5 350.865 3077.26 348.299 3075.22 346.333C3074.14 345.418 3072.88 344.72 3071.5 344.283C3070.12 343.846 3068.66 343.679 3067.21 343.793C3064.24 343.687 3061.33 344.589 3059.02 346.333V346.333Z" fill="white"/>
<path d="M2016.22 713.003C2015.76 698.228 2009.12 684.2 1997.72 673.902C1986.31 663.603 1971.03 657.845 1955.13 657.851V657.851C1955.14 670.49 1959.67 682.766 1968.01 692.75C1976.35 702.733 1988.02 709.858 2001.19 713.003H2000.99V728.968C2001 732.72 2002.6 736.316 2005.46 738.969C2008.31 741.622 2012.18 743.114 2016.22 743.119V713.003ZM1983.62 688.148C1979.77 684.559 1976.61 680.387 1974.26 675.812C1984.18 680.199 1992.18 687.631 1996.9 696.857C1991.97 694.668 1987.48 691.717 1983.62 688.13V688.148Z" fill="#26A69A"/>
<path d="M2056.23 719.698C2072.12 719.273 2087.21 713.103 2098.29 702.499C2109.37 691.896 2115.57 677.694 2115.56 662.913V662.913C2101.96 662.925 2088.76 667.138 2078.02 674.888C2067.28 682.639 2059.61 693.487 2056.23 705.728V705.547H2039.05C2035.02 705.552 2031.15 707.044 2028.29 709.697C2025.44 712.35 2023.83 715.946 2023.83 719.698H2056.23ZM2082.97 689.582C2086.83 686.002 2091.32 683.057 2096.24 680.874C2091.52 690.099 2083.52 697.531 2073.6 701.918C2075.95 697.343 2079.11 693.172 2082.97 689.582V689.582Z" fill="#26A69A"/>
<path d="M2048.23 757.07C2048.68 771.846 2055.32 785.873 2066.73 796.172C2078.13 806.47 2093.41 812.228 2109.31 812.222V812.222C2109.3 799.584 2104.77 787.307 2096.43 777.324C2088.09 767.34 2076.42 760.216 2063.25 757.07H2063.45V741.105C2063.44 737.354 2061.84 733.757 2058.98 731.104C2056.13 728.452 2052.26 726.959 2048.23 726.954V757.07ZM2080.82 781.925C2084.67 785.515 2087.84 789.686 2090.19 794.262C2080.26 789.875 2072.27 782.442 2067.55 773.217C2072.47 775.406 2076.96 778.357 2080.82 781.943V781.925Z" fill="#26A69A"/>
<path d="M2008.02 750.358C1992.13 750.783 1977.03 756.953 1965.96 767.556C1954.88 778.16 1948.68 792.361 1948.69 807.143C1962.29 807.13 1975.49 802.917 1986.23 795.167C1996.97 787.417 2004.64 776.568 2008.02 764.327V764.509H2025.2C2029.23 764.504 2033.1 763.012 2035.95 760.359C2038.81 757.706 2040.41 754.109 2040.42 750.358H2008.02ZM1981.28 780.655C1977.42 784.235 1972.93 787.18 1968.01 789.363C1972.73 780.138 1980.73 772.706 1990.65 768.319C1988.3 772.894 1985.13 777.065 1981.28 780.655V780.655Z" fill="#26A69A"/>
<path d="M1859.5 901.3H1830.81L1823.97 919.442H1808.17L1837.64 846.693H1855.59L1882.33 919.442H1865.94L1859.5 901.3ZM1835.49 888.782H1855.2L1846.03 861.932L1835.49 888.782Z" fill="white"/>
<path d="M1942.25 867.211V915.106C1942.25 924.722 1939.71 931.797 1934.83 936.695C1929.95 941.594 1923.12 943.771 1914.53 943.771C1907.95 944.033 1901.45 942.316 1895.99 938.872C1891.31 935.607 1888.58 930.527 1887.99 923.815H1901.85C1902.34 926.223 1903.81 928.365 1905.95 929.801C1908.3 931.3 1911.1 932.063 1913.95 931.978C1915.83 932.09 1917.71 931.787 1919.44 931.093C1921.17 930.399 1922.7 929.335 1923.9 927.987C1926.54 924.906 1927.86 921.031 1927.61 917.102V915.106C1925.61 917.004 1923.2 918.499 1920.55 919.498C1917.9 920.496 1915.05 920.978 1912.19 920.912C1907.37 921.049 1902.61 919.849 1898.53 917.465C1894.56 915.129 1891.38 911.795 1889.36 907.849C1887.1 903.368 1885.96 898.467 1886.04 893.517C1885.93 888.486 1887.14 883.506 1889.55 879.004C1891.65 875.1 1894.9 871.83 1898.92 869.57C1902.75 867.42 1907.14 866.291 1911.61 866.304C1915.04 866.318 1918.43 866.998 1921.56 868.3C1924.55 869.651 1927.21 871.566 1929.37 873.924L1930.54 867.393H1942.25V867.211ZM1927.42 887.893C1926.72 885.169 1925.15 882.704 1922.93 880.818C1920.65 879.021 1917.71 878.111 1914.73 878.278C1912.81 878.217 1910.9 878.561 1909.14 879.283C1907.38 880.006 1905.82 881.089 1904.58 882.451C1902.17 885.637 1900.87 889.439 1900.87 893.336C1900.87 897.233 1902.17 901.035 1904.58 904.221C1905.84 905.558 1907.4 906.612 1909.16 907.304C1910.92 907.995 1912.82 908.306 1914.73 908.212C1917.73 908.323 1920.69 907.492 1923.12 905.854C1925.4 904.269 1926.94 901.931 1927.42 899.323V887.893Z" fill="white"/>
<path d="M1990.85 866.105L1990.26 879.892C1988.46 879.248 1986.53 878.94 1984.6 878.985C1982.15 878.966 1979.73 879.528 1977.57 880.618C1975.33 881.622 1973.44 883.194 1972.11 885.154C1970.7 887.212 1969.95 889.606 1969.96 892.048V919.079H1955.13V867.012H1967.43L1968.6 874.45C1970.65 871.622 1973.45 869.334 1976.73 867.808C1980.02 866.283 1983.67 865.571 1987.33 865.742C1988.64 865.923 1989.87 865.923 1990.85 866.105Z" fill="white"/>
<path d="M2013.49 859.755H1998.65V846.693H2013.49V859.755ZM2013.49 919.261H1998.65V867.211H2013.49V919.261Z" fill="white"/>
<path d="M2041.59 917.81C2036.98 916.095 2032.94 913.278 2029.88 909.646C2026.92 905.965 2025.22 901.539 2025 896.946H2041C2041.18 898.634 2041.74 900.269 2042.65 901.739C2043.56 903.21 2044.79 904.483 2046.27 905.473C2049.83 907.724 2054.08 908.809 2058.37 908.557C2062.3 908.753 2066.19 907.801 2069.5 905.836C2070.79 905.051 2071.85 903.972 2072.56 902.702C2073.28 901.432 2073.64 900.013 2073.6 898.579C2073.6 894.043 2070.08 891.141 2063.45 889.689L2047.44 886.424C2040.81 884.972 2035.73 882.795 2032.22 879.53C2030.47 877.923 2029.1 875.997 2028.2 873.874C2027.29 871.751 2026.87 869.476 2026.95 867.193C2026.83 863.111 2028.13 859.102 2030.66 855.764C2033.35 852.324 2036.99 849.628 2041.2 847.963C2046.28 846.056 2051.73 845.13 2057.2 845.241C2065.12 844.947 2072.93 847.048 2079.45 851.228C2082.26 853.238 2084.56 855.785 2086.21 858.696C2087.86 861.607 2088.82 864.815 2089.02 868.1H2073.21C2072.43 860.843 2067.35 857.396 2057.59 857.396C2053.91 857.177 2050.23 857.999 2047.05 859.755C2045.86 860.397 2044.87 861.324 2044.18 862.439C2043.49 863.555 2043.14 864.82 2043.15 866.105C2043.09 867.106 2043.29 868.106 2043.73 869.021C2044.18 869.936 2044.85 870.74 2045.69 871.366C2048.11 872.87 2050.83 873.917 2053.69 874.45L2069.11 877.716C2083.36 880.618 2090.38 887.149 2090.38 897.309C2090.49 901.754 2089.13 906.123 2086.48 909.827C2083.79 913.57 2079.9 916.427 2075.35 917.991C2070.07 919.896 2064.43 920.821 2058.76 920.712C2052.88 920.869 2047.03 919.88 2041.59 917.81Z" fill="white"/>
<path d="M2141.71 871.366C2146.01 874.994 2148.15 880.437 2148.15 887.875V919.261H2136.44L2135.08 912.367C2133.18 914.793 2130.71 916.78 2127.86 918.172C2124.51 919.881 2120.74 920.756 2116.93 920.712C2111.86 920.922 2106.87 919.442 2102.87 916.54C2101.13 915.163 2099.75 913.433 2098.84 911.484C2097.92 909.534 2097.5 907.416 2097.6 905.291C2097.5 903.466 2097.84 901.642 2098.58 899.949C2099.32 898.256 2100.45 896.735 2101.9 895.495C2105.36 892.7 2109.52 890.765 2114 889.871C2120.41 888.381 2126.93 887.35 2133.52 886.787V886.061C2133.71 883.625 2132.87 881.215 2131.17 879.348C2130.25 878.582 2129.17 877.996 2127.99 877.622C2126.82 877.248 2125.58 877.095 2124.34 877.171C2121.79 877.052 2119.28 877.829 2117.32 879.348C2116.5 879.998 2115.86 880.807 2115.42 881.716C2114.98 882.625 2114.76 883.613 2114.78 884.609H2099.89C2099.78 881.175 2100.88 877.801 2103.01 874.994C2105.19 872.022 2108.24 869.693 2111.79 868.282C2115.78 866.632 2120.11 865.826 2124.48 865.923C2130.76 865.638 2136.92 867.584 2141.71 871.366V871.366ZM2128.64 907.831C2131.12 905.841 2132.73 903.059 2133.13 900.03V895.858C2127.79 895.936 2122.51 896.857 2117.51 898.579C2114 900.03 2112.24 902.026 2112.24 904.747C2112.18 905.582 2112.35 906.416 2112.72 907.176C2113.1 907.936 2113.67 908.598 2114.39 909.101C2116.03 910.195 2118.04 910.71 2120.05 910.553C2123.18 910.684 2126.24 909.712 2128.64 907.831V907.831Z" fill="white"/>
<path d="M2182.31 855.582C2180.76 858.316 2180.02 861.384 2180.16 864.472V867.211H2197.73V878.822H2180.16V919.279H2165.33V878.822H2154.4V869.388L2165.33 867.574V865.397C2165.33 857.233 2167.28 851.065 2171.18 846.529C2175.09 841.994 2180.94 839.817 2188.94 839.817C2193.6 839.751 2198.21 840.682 2202.41 842.538L2197.92 853.968C2195.35 852.854 2192.56 852.237 2189.72 852.153C2188.28 852.085 2186.83 852.365 2185.53 852.965C2184.23 853.566 2183.12 854.467 2182.31 855.582Z" fill="white"/>
<path d="M2256.28 897.853H2216.46C2216.92 900.932 2218.42 903.793 2220.76 906.017C2221.96 907.059 2223.37 907.868 2224.91 908.398C2226.45 908.927 2228.09 909.166 2229.73 909.101C2232.31 909.162 2234.84 908.464 2236.96 907.106C2238.79 905.946 2240.11 904.205 2240.66 902.207H2255.11C2254.98 905.693 2253.68 909.054 2251.4 911.823C2248.94 914.718 2245.71 916.969 2242.03 918.354C2237.97 919.986 2233.57 920.79 2229.15 920.712C2223.96 920.869 2218.82 919.675 2214.32 917.265C2210.17 914.956 2206.8 911.629 2204.56 907.65C2202.34 903.18 2201.21 898.311 2201.24 893.388C2201.27 888.466 2202.47 883.61 2204.75 879.167C2207 875.087 2210.45 871.688 2214.71 869.37C2219.16 867.004 2224.22 865.812 2229.34 865.923C2234.38 865.818 2239.36 866.944 2243.79 869.189C2247.83 871.253 2251.1 874.419 2253.16 878.26C2255.39 882.426 2256.53 887.028 2256.47 891.685V897.853H2256.28ZM2221.34 880.255C2219.07 882.183 2217.5 884.719 2216.85 887.512H2241.05C2240.83 884.787 2239.58 882.221 2237.54 880.255C2236.47 879.341 2235.2 878.642 2233.83 878.205C2232.45 877.768 2230.99 877.601 2229.54 877.716C2228.06 877.59 2226.57 877.751 2225.16 878.188C2223.74 878.625 2222.45 879.329 2221.34 880.255V880.255Z" fill="white"/>
<path d="M2016.22 174.527C2015.76 159.752 2009.12 145.724 1997.72 135.426C1986.31 125.127 1971.03 119.369 1955.13 119.375V119.375C1955.14 132.014 1959.67 144.29 1968.01 154.273C1976.35 164.257 1988.02 171.382 2001.19 174.527H2000.99V190.51C2001 194.262 2002.6 197.858 2005.46 200.511C2008.31 203.164 2012.18 204.656 2016.22 204.661V174.527ZM1983.62 149.672C1979.77 146.083 1976.61 141.911 1974.26 137.336C1984.18 141.723 1992.18 149.155 1996.9 158.381C1991.97 156.197 1987.49 153.252 1983.62 149.672V149.672Z" fill="url(#paint4_linear_1303_12411)"/>
<path d="M2056.23 181.24C2072.12 180.815 2087.21 174.645 2098.29 164.041C2109.37 153.438 2115.57 139.237 2115.56 124.455V124.455C2101.96 124.468 2088.76 128.68 2078.02 136.431C2067.28 144.181 2059.61 155.029 2056.23 167.27V167.089H2039.05C2035.02 167.094 2031.15 168.586 2028.29 171.239C2025.44 173.892 2023.83 177.488 2023.83 181.24H2056.23ZM2082.97 150.942C2086.83 147.362 2091.32 144.418 2096.24 142.234C2091.52 151.46 2083.52 158.892 2073.6 163.279C2075.95 158.704 2079.11 154.532 2082.97 150.942V150.942Z" fill="url(#paint5_linear_1303_12411)"/>
<path d="M2048.23 218.612C2048.68 233.388 2055.32 247.415 2066.73 257.714C2078.13 268.013 2093.41 273.771 2109.31 273.765V273.765C2109.3 261.126 2104.77 248.85 2096.43 238.866C2088.09 228.883 2076.42 221.758 2063.25 218.612H2063.45V202.647C2063.44 198.896 2061.84 195.299 2058.98 192.647C2056.13 189.994 2052.26 188.501 2048.23 188.497V218.612V218.612ZM2080.82 243.467C2084.67 247.057 2087.84 251.228 2090.19 255.804C2080.26 251.417 2072.27 243.985 2067.55 234.759C2072.47 236.943 2076.96 239.887 2080.82 243.467V243.467Z" fill="url(#paint6_linear_1303_12411)"/>
<path d="M2008.02 211.9C1992.13 212.325 1977.03 218.495 1965.96 229.098C1954.88 239.702 1948.68 253.903 1948.69 268.685V268.685C1962.29 268.672 1975.49 264.46 1986.23 256.709C1996.97 248.959 2004.64 238.11 2008.02 225.869V226.051H2025.2C2029.23 226.046 2033.1 224.554 2035.95 221.901C2038.81 219.248 2040.41 215.651 2040.42 211.9H2008.02ZM1981.28 242.016C1977.42 245.596 1972.93 248.54 1968.01 250.724C1972.73 241.498 1980.73 234.066 1990.65 229.679C1988.3 234.255 1985.13 238.426 1981.28 242.016V242.016Z" fill="url(#paint7_linear_1303_12411)"/>
<path d="M1859.5 362.86H1830.81L1823.97 381.003H1808.17L1837.64 308.253H1855.59L1882.33 381.003H1865.94L1859.5 362.86ZM1835.49 350.342H1855.2L1846.03 323.492L1835.49 350.342Z" fill="#2F2F2F"/>
<path d="M1942.25 328.735V376.63C1942.25 386.246 1939.71 393.321 1934.83 398.219C1929.95 403.118 1923.12 405.295 1914.53 405.295C1907.95 405.557 1901.45 403.84 1895.99 400.396C1891.31 397.131 1888.58 392.051 1887.99 385.338H1901.85C1902.34 387.747 1903.81 389.889 1905.95 391.325C1908.3 392.824 1911.1 393.587 1913.95 393.502C1915.83 393.614 1917.71 393.311 1919.44 392.617C1921.17 391.923 1922.7 390.859 1923.9 389.511C1926.54 386.43 1927.86 382.555 1927.61 378.626V376.63C1925.61 378.528 1923.2 380.023 1920.55 381.022C1917.9 382.02 1915.05 382.502 1912.19 382.436C1907.37 382.573 1902.61 381.373 1898.53 378.989C1894.56 376.653 1891.38 373.319 1889.36 369.373C1887.1 364.891 1885.96 359.991 1886.04 355.041C1885.93 350.01 1887.14 345.03 1889.55 340.527C1891.65 336.624 1894.9 333.354 1898.92 331.094C1902.75 328.944 1907.14 327.815 1911.61 327.828C1915.04 327.842 1918.43 328.522 1921.56 329.824C1924.55 331.175 1927.21 333.09 1929.37 335.448L1930.54 328.917H1942.25V328.735ZM1927.42 349.417C1926.72 346.693 1925.15 344.228 1922.93 342.342C1920.6 340.621 1917.7 339.721 1914.73 339.802C1912.81 339.741 1910.9 340.085 1909.14 340.807C1907.38 341.53 1905.82 342.613 1904.58 343.974C1902.17 347.161 1900.87 350.963 1900.87 354.86C1900.87 358.757 1902.17 362.559 1904.58 365.745C1905.84 367.082 1907.4 368.136 1909.16 368.828C1910.92 369.519 1912.82 369.83 1914.73 369.736C1917.73 369.846 1920.69 369.016 1923.12 367.378C1925.4 365.793 1926.94 363.455 1927.42 360.847V349.417Z" fill="#2F2F2F"/>
<path d="M1990.85 327.646L1990.26 341.435C1988.46 340.79 1986.53 340.482 1984.6 340.527C1982.15 340.508 1979.73 341.07 1977.57 342.16C1975.33 343.164 1973.44 344.736 1972.11 346.696C1970.7 348.754 1969.95 351.148 1969.96 353.59V380.621H1955.13V328.554H1967.43L1968.6 335.992C1970.65 333.164 1973.45 330.876 1976.73 329.35C1980.02 327.825 1983.67 327.113 1987.33 327.284C1988.64 327.465 1989.87 327.465 1990.85 327.646Z" fill="#2F2F2F"/>
<path d="M2013.49 321.297H1998.65V308.234H2013.49V321.297ZM2013.49 380.803H1998.65V328.735H2013.49V380.803Z" fill="#2F2F2F"/>
<path d="M2041.59 379.352C2036.98 377.636 2032.94 374.82 2029.88 371.188C2026.95 367.492 2025.25 363.075 2025 358.488H2041C2041.18 360.176 2041.74 361.81 2042.65 363.281C2043.56 364.752 2044.79 366.025 2046.27 367.015C2049.83 369.266 2054.08 370.351 2058.37 370.099C2062.3 370.295 2066.19 369.343 2069.5 367.378C2070.79 366.593 2071.85 365.514 2072.56 364.244C2073.28 362.974 2073.64 361.555 2073.6 360.121C2073.6 355.585 2070.08 352.683 2063.45 351.231L2047.44 347.966C2040.81 346.514 2035.73 344.337 2032.22 341.072C2030.47 339.465 2029.1 337.539 2028.2 335.416C2027.29 333.293 2026.87 331.018 2026.95 328.735C2026.83 324.653 2028.13 320.644 2030.66 317.306C2033.35 313.866 2036.99 311.17 2041.2 309.504C2046.28 307.597 2051.73 306.671 2057.2 306.783C2065.12 306.489 2072.93 308.59 2079.45 312.77C2082.26 314.78 2084.56 317.327 2086.21 320.238C2087.86 323.149 2088.82 326.357 2089.02 329.642H2073.21C2072.43 322.385 2067.35 318.938 2057.59 318.938C2053.91 318.719 2050.23 319.541 2047.05 321.297C2045.86 321.939 2044.87 322.866 2044.18 323.981C2043.49 325.097 2043.14 326.362 2043.15 327.647C2043.09 328.648 2043.29 329.648 2043.73 330.563C2044.18 331.478 2044.85 332.282 2045.69 332.908C2048.11 334.412 2050.83 335.459 2053.69 335.992L2069.11 339.257C2083.36 342.16 2090.38 348.691 2090.38 358.851C2090.49 363.296 2089.13 367.665 2086.48 371.369C2083.79 375.111 2079.9 377.969 2075.35 379.533C2070.07 381.438 2064.43 382.362 2058.76 382.254C2052.88 382.411 2047.03 381.422 2041.59 379.352V379.352Z" fill="#2F2F2F"/>
<path d="M2141.71 332.908C2146.01 336.536 2148.15 341.979 2148.15 349.417V380.803H2136.44L2135.08 373.909C2133.18 376.335 2130.71 378.322 2127.86 379.714C2124.51 381.423 2120.74 382.298 2116.93 382.254C2111.86 382.464 2106.87 380.985 2102.87 378.082C2101.13 376.705 2099.75 374.975 2098.84 373.026C2097.92 371.076 2097.5 368.958 2097.6 366.833C2097.5 365.008 2097.84 363.184 2098.58 361.491C2099.32 359.798 2100.45 358.277 2101.9 357.037C2105.36 354.242 2109.52 352.307 2114 351.413C2120.41 349.907 2126.93 348.876 2133.52 348.329V347.603C2133.71 345.167 2132.87 342.757 2131.17 340.89C2130.25 340.124 2129.17 339.538 2127.99 339.164C2126.82 338.79 2125.58 338.637 2124.34 338.713C2121.79 338.594 2119.28 339.371 2117.32 340.89C2116.5 341.54 2115.86 342.349 2115.42 343.258C2114.98 344.167 2114.76 345.155 2114.78 346.151H2099.89C2099.78 342.717 2100.88 339.343 2103.01 336.536C2105.19 333.564 2108.24 331.235 2111.79 329.824C2115.78 328.174 2120.11 327.368 2124.48 327.465C2130.76 327.18 2136.92 329.126 2141.71 332.908V332.908ZM2128.64 369.192C2131.12 367.201 2132.73 364.42 2133.13 361.391V357.218C2127.79 357.297 2122.51 358.217 2117.51 359.939C2114 361.391 2112.24 363.386 2112.24 366.108C2112.18 366.942 2112.35 367.777 2112.72 368.537C2113.1 369.297 2113.67 369.958 2114.39 370.462C2116.03 371.556 2118.04 372.071 2120.05 371.913C2121.6 372.021 2123.17 371.835 2124.64 371.367C2126.12 370.9 2127.48 370.16 2128.64 369.192V369.192Z" fill="#2F2F2F"/>
<path d="M2182.31 317.124C2180.76 319.858 2180.02 322.926 2180.16 326.014V328.735H2197.73V340.346H2180.16V380.803H2165.33V340.346H2154.4V330.731L2165.33 328.916V326.739C2165.33 318.575 2167.28 312.407 2171.18 307.872C2175.09 303.336 2180.94 301.159 2188.94 301.159C2193.6 301.093 2198.21 302.024 2202.41 303.88L2197.92 315.31C2195.35 314.196 2192.56 313.579 2189.72 313.496C2186.21 313.877 2183.67 314.947 2182.31 317.124Z" fill="#2F2F2F"/>
<path d="M2256.28 359.395H2216.46C2216.92 362.474 2218.42 365.335 2220.76 367.559C2221.96 368.601 2223.37 369.41 2224.91 369.939C2226.45 370.469 2228.09 370.708 2229.73 370.643C2232.31 370.704 2234.84 370.006 2236.96 368.648C2238.79 367.488 2240.11 365.747 2240.66 363.749H2255.11C2254.98 367.235 2253.68 370.596 2251.4 373.365C2248.94 376.26 2245.71 378.511 2242.03 379.896C2237.97 381.528 2233.57 382.332 2229.15 382.254C2223.96 382.411 2218.82 381.217 2214.32 378.807C2210.17 376.498 2206.8 373.171 2204.56 369.192C2202.34 364.722 2201.21 359.853 2201.24 354.93C2201.27 350.007 2202.47 345.152 2204.75 340.709C2207 336.629 2210.45 333.23 2214.71 330.912C2219.16 328.546 2224.22 327.354 2229.34 327.465C2234.38 327.36 2239.36 328.486 2243.79 330.731C2247.83 332.795 2251.1 335.961 2253.16 339.802C2255.42 343.961 2256.55 348.568 2256.47 353.227V359.395H2256.28ZM2221.34 341.797C2219.07 343.725 2217.5 346.261 2216.85 349.054H2241.05C2240.83 346.329 2239.58 343.763 2237.54 341.797C2236.47 340.882 2235.2 340.184 2233.83 339.747C2232.45 339.31 2230.99 339.143 2229.54 339.257C2228.06 339.132 2226.57 339.293 2225.16 339.73C2223.74 340.167 2222.45 340.871 2221.34 341.797Z" fill="#2F2F2F"/>
<path d="M2015.96 173.983C2015.51 159.207 2008.87 145.18 1997.46 134.881C1986.06 124.583 1970.78 118.825 1954.88 118.831V118.831C1954.89 131.47 1959.42 143.746 1967.76 153.729C1976.1 163.713 1987.77 170.837 2000.94 173.983H2000.74V189.948C2000.75 193.7 2002.35 197.296 2005.21 199.949C2008.06 202.602 2011.93 204.094 2015.96 204.099V173.983ZM1983.37 149.128C1979.52 145.538 1976.35 141.367 1974 136.792C1983.93 141.178 1991.92 148.611 1996.64 157.836C1991.74 155.647 1987.27 152.703 1983.43 149.128H1983.37Z" fill="#26A69A"/>
<path d="M2056.03 180.695C2071.93 180.27 2087.02 174.101 2098.1 163.497C2109.18 152.894 2115.37 138.692 2115.36 123.911V123.911C2101.77 123.923 2088.56 128.136 2077.82 135.886C2067.08 143.637 2059.42 154.485 2056.03 166.726V166.545H2038.86C2034.82 166.549 2030.95 168.042 2028.1 170.695C2025.25 173.347 2023.64 176.944 2023.63 180.695H2056.03ZM2082.77 150.398C2086.63 146.818 2091.12 143.874 2096.04 141.69C2091.32 150.916 2083.33 158.348 2073.4 162.735C2075.75 158.159 2078.92 153.988 2082.77 150.398V150.398Z" fill="#26A69A"/>
<path d="M2048.03 217.887C2048.49 232.662 2055.13 246.69 2066.53 256.988C2077.94 267.287 2093.22 273.045 2109.12 273.039V273.039C2109.11 260.4 2104.57 248.124 2096.24 238.14C2087.9 228.157 2076.23 221.032 2063.06 217.887H2063.25V201.922C2063.25 198.17 2061.64 194.574 2058.79 191.921C2055.94 189.268 2052.07 187.776 2048.03 187.771V217.887ZM2080.43 242.741C2084.28 246.331 2087.45 250.503 2089.8 255.078C2079.87 250.691 2071.88 243.259 2067.16 234.033C2072.06 236.222 2076.53 239.167 2080.37 242.741H2080.43Z" fill="#26A69A"/>
<path d="M2007.83 211.174C1991.93 211.599 1976.84 217.769 1965.76 228.373C1954.68 238.976 1948.49 253.177 1948.49 267.959V267.959C1962.09 267.946 1975.3 263.734 1986.04 255.984C1996.78 248.233 2004.44 237.385 2007.83 225.144V225.325H2025C2029.04 225.32 2032.91 223.828 2035.76 221.175C2038.61 218.522 2040.22 214.926 2040.22 211.174H2007.83ZM1981.09 241.472C1977.23 245.052 1972.74 247.996 1967.82 250.18C1972.53 240.954 1980.53 233.522 1990.46 229.135C1988.11 233.71 1984.94 237.882 1981.09 241.472V241.472Z" fill="#26A69A"/>
<path d="M2691.51 902.207H2662.82L2655.99 920.349H2640.18L2669.65 847.6H2687.61L2714.34 920.349H2697.95L2691.51 902.207ZM2667.7 889.689H2687.35L2678.18 862.839L2667.7 889.689Z" fill="#26A69A"/>
<path d="M2774.26 868.1V915.995C2774.26 925.611 2771.72 932.686 2766.85 937.584C2761.97 942.483 2755.13 944.66 2746.55 944.66C2739.96 944.922 2733.46 943.205 2728.01 939.761C2723.32 936.496 2720.59 931.416 2720 924.704H2733.86C2734.36 927.112 2735.82 929.254 2737.96 930.69C2740.31 932.189 2743.11 932.952 2745.96 932.867C2747.84 932.979 2749.72 932.676 2751.45 931.982C2753.18 931.288 2754.71 930.224 2755.92 928.876C2758.55 925.795 2759.87 921.92 2759.62 917.991V915.995C2757.62 917.893 2755.22 919.388 2752.56 920.387C2749.91 921.385 2747.07 921.867 2744.21 921.801C2739.38 921.938 2734.63 920.738 2730.54 918.354C2726.57 916.018 2723.39 912.684 2721.37 908.738C2719.11 904.257 2717.98 899.356 2718.05 894.406C2717.94 889.375 2719.15 884.395 2721.57 879.892C2723.67 875.989 2726.92 872.719 2730.93 870.459C2734.76 868.309 2739.15 867.18 2743.62 867.193C2747.05 867.207 2750.44 867.887 2753.57 869.189C2756.61 870.478 2759.28 872.403 2761.38 874.813L2762.55 868.282H2774.26V868.1ZM2759.43 888.782C2758.73 886.058 2757.17 883.593 2754.94 881.707C2752.62 879.986 2749.71 879.086 2746.74 879.167C2744.82 879.106 2742.91 879.45 2741.15 880.172C2739.4 880.895 2737.84 881.978 2736.59 883.34C2734.18 886.526 2732.88 890.328 2732.88 894.225C2732.88 898.122 2734.18 901.924 2736.59 905.11C2737.85 906.447 2739.42 907.501 2741.17 908.193C2742.93 908.884 2744.84 909.195 2746.74 909.101C2749.75 909.212 2752.7 908.381 2755.13 906.743C2757.41 905.158 2758.95 902.82 2759.43 900.212V888.782Z" fill="#26A69A"/>
<path d="M2822.86 867.012L2822.27 880.8C2820.47 880.156 2818.55 879.847 2816.61 879.892C2814.16 879.873 2811.74 880.435 2809.59 881.525C2807.34 882.529 2805.45 884.101 2804.12 886.061C2802.71 888.119 2801.96 890.513 2801.98 892.955V919.987H2787.14V867.919H2799.44L2800.61 875.357C2802.66 872.529 2805.47 870.241 2808.75 868.715C2812.03 867.19 2815.68 866.478 2819.35 866.649C2820.71 866.83 2821.88 866.83 2822.86 867.012Z" fill="#26A69A"/>
<path d="M2845.44 860.662H2830.61V847.6H2845.44V860.662ZM2845.44 920.168H2830.61V868.1H2845.44V920.168Z" fill="#26A69A"/>
<path d="M2873.6 918.717C2869 917.002 2864.96 914.185 2861.89 910.553C2858.96 906.857 2857.26 902.44 2857.01 897.853H2873.02C2873.19 899.541 2873.75 901.176 2874.66 902.646C2875.57 904.117 2876.81 905.39 2878.29 906.38C2881.84 908.631 2886.1 909.716 2890.39 909.464C2894.31 909.66 2898.2 908.709 2901.51 906.743C2902.81 905.958 2903.86 904.879 2904.58 903.609C2905.29 902.339 2905.65 900.92 2905.61 899.486C2905.61 894.951 2902.1 892.048 2895.46 890.596L2879.46 887.331C2872.82 885.879 2867.75 883.702 2864.24 880.437C2862.49 878.83 2861.12 876.904 2860.21 874.781C2859.3 872.658 2858.88 870.383 2858.97 868.1C2858.84 864.018 2860.14 860.009 2862.67 856.671C2865.36 853.231 2869.01 850.535 2873.21 848.87C2878.29 846.962 2883.74 846.037 2889.22 846.148C2897.14 845.854 2904.94 847.955 2911.47 852.135C2914.27 854.145 2916.57 856.692 2918.23 859.603C2919.88 862.514 2920.83 865.722 2921.03 869.007H2905.22C2904.44 861.75 2899.37 858.303 2889.61 858.303C2885.92 858.084 2882.25 858.906 2879.07 860.662C2877.87 861.304 2876.88 862.231 2876.19 863.346C2875.51 864.462 2875.15 865.727 2875.17 867.012C2875.11 868.013 2875.31 869.013 2875.75 869.928C2876.19 870.843 2876.86 871.647 2877.7 872.273C2880.13 873.777 2882.85 874.824 2885.7 875.357L2901.12 878.623C2915.37 881.525 2922.4 888.056 2922.4 898.216C2922.5 902.661 2921.14 907.03 2918.49 910.734C2915.8 914.477 2911.91 917.334 2907.37 918.898C2902.08 920.803 2896.45 921.728 2890.78 921.619C2884.9 921.776 2879.05 920.787 2873.6 918.717V918.717Z" fill="#26A69A"/>
<path d="M2973.73 872.273C2978.02 875.901 2980.17 881.344 2980.17 888.782V920.168H2968.46L2967.09 913.274C2965.2 915.7 2962.73 917.687 2959.87 919.08C2956.52 920.788 2952.76 921.663 2948.94 921.619C2943.87 921.829 2938.89 920.35 2934.89 917.447C2933.14 916.07 2931.76 914.341 2930.85 912.391C2929.94 910.441 2929.51 908.323 2929.62 906.199C2929.52 904.373 2929.85 902.549 2930.59 900.856C2931.33 899.163 2932.47 897.642 2933.91 896.402C2937.37 893.607 2941.53 891.672 2946.01 890.778C2952.42 889.272 2958.95 888.241 2965.53 887.694V886.968C2965.72 884.532 2964.88 882.122 2963.19 880.255C2962.26 879.49 2961.18 878.903 2960.01 878.529C2958.83 878.155 2957.59 878.002 2956.36 878.078C2953.8 877.959 2951.3 878.736 2949.33 880.255C2948.52 880.905 2947.87 881.714 2947.43 882.623C2946.99 883.532 2946.77 884.52 2946.79 885.517H2931.96C2931.85 882.082 2932.95 878.708 2935.08 875.901C2937.26 872.93 2940.31 870.6 2943.87 869.189C2947.85 867.539 2952.19 866.733 2956.55 866.83C2962.81 866.559 2968.95 868.504 2973.73 872.273V872.273ZM2960.65 908.739C2963.14 906.748 2964.74 903.966 2965.14 900.937V896.765C2959.81 896.843 2954.53 897.764 2949.53 899.486C2946.01 900.937 2944.26 902.933 2944.26 905.654C2944.2 906.489 2944.36 907.323 2944.74 908.083C2945.11 908.843 2945.68 909.505 2946.4 910.008C2948.04 911.103 2950.05 911.617 2952.06 911.46C2955.16 911.52 2958.18 910.556 2960.59 908.739H2960.65Z" fill="#26A69A"/>
<path d="M3014.32 856.489C3012.77 859.223 3012.03 862.291 3012.18 865.379V868.1H3029.74V879.711H3012.18V920.168H2997.34V879.711H2986.41V870.096L2997.34 868.282V866.105C2997.34 857.941 2999.29 851.772 3003.2 847.237C3007.1 842.701 3012.96 840.524 3020.96 840.524C3025.61 840.458 3030.22 841.389 3034.42 843.245L3029.94 854.675C3027.36 853.561 3024.57 852.944 3021.74 852.861C3018.23 853.224 3015.69 854.312 3014.32 856.489Z" fill="#26A69A"/>
<path d="M3088.29 898.76H3048.42C3048.87 901.839 3050.38 904.7 3052.71 906.924C3053.91 907.966 3055.33 908.775 3056.87 909.305C3058.41 909.834 3060.05 910.073 3061.69 910.009C3064.26 910.069 3066.79 909.371 3068.91 908.013C3070.75 906.853 3072.06 905.112 3072.62 903.115H3087.06C3086.93 906.6 3085.64 909.961 3083.35 912.73C3080.89 915.625 3077.66 917.876 3073.99 919.261C3069.92 920.893 3065.53 921.697 3061.1 921.619C3055.91 921.776 3050.77 920.583 3046.27 918.172C3042.13 915.863 3038.75 912.536 3036.51 908.557C3034.29 904.087 3033.16 899.218 3033.19 894.295C3033.23 889.373 3034.43 884.517 3036.71 880.074C3038.96 875.994 3042.41 872.595 3046.66 870.277C3051.11 867.911 3056.17 866.719 3061.3 866.83C3066.34 866.725 3071.32 867.851 3075.74 870.096C3079.79 872.16 3083.06 875.326 3085.11 879.167C3087.37 883.326 3088.51 887.933 3088.43 892.592V898.76H3088.29ZM3053.36 881.163C3051.09 883.09 3049.52 885.626 3048.87 888.419H3073.07C3072.84 885.694 3071.6 883.128 3069.56 881.163C3068.48 880.248 3067.22 879.55 3065.84 879.112C3064.46 878.675 3063 878.508 3061.55 878.623C3060.07 878.497 3058.58 878.658 3057.17 879.095C3055.76 879.532 3054.46 880.236 3053.36 881.163V881.163Z" fill="#26A69A"/>
<path d="M1642.95 0H821.475V539.909H1642.95V0Z" fill="#26A69A"/>
<path d="M821.475 539.909H0V1079.82H821.475V539.909Z" fill="#2F2F2F"/>
<path d="M1148 278.119H1119.31L1112.47 296.261H1096.67L1126.14 223.511H1144.09L1170.83 296.261H1154.44L1148 278.119ZM1124.18 265.601H1143.9L1134.72 238.75L1124.18 265.601Z" fill="white"/>
<path d="M1230.75 244.011V291.907C1230.75 301.522 1228.21 308.597 1223.33 313.496C1218.45 318.394 1211.62 320.571 1203.03 320.571C1196.45 320.834 1189.95 319.116 1184.49 315.673C1179.81 312.407 1177.08 307.327 1176.49 300.615H1190.35C1190.84 303.033 1192.32 305.182 1194.47 306.62C1196.82 308.119 1199.62 308.881 1202.47 308.797C1204.35 308.908 1206.23 308.605 1207.96 307.911C1209.69 307.218 1211.22 306.153 1212.42 304.806C1214.97 301.684 1216.28 297.838 1216.13 293.92V291.925C1214.12 293.823 1211.72 295.317 1209.07 296.316C1206.42 297.315 1203.57 297.796 1200.71 297.73C1195.89 297.867 1191.13 296.667 1187.05 294.283C1183.08 291.947 1179.9 288.613 1177.88 284.668C1175.62 280.186 1174.48 275.285 1174.56 270.336C1174.45 265.305 1175.65 260.325 1178.07 255.822C1180.17 251.919 1183.42 248.648 1187.44 246.388C1191.27 244.239 1195.65 243.109 1200.13 243.122C1203.56 243.136 1206.95 243.816 1210.08 245.118C1213.07 246.469 1215.73 248.385 1217.89 250.742L1219.06 244.211H1230.77L1230.75 244.011ZM1216.11 264.693C1215.41 261.97 1213.85 259.504 1211.62 257.618C1209.3 255.897 1206.39 254.998 1203.42 255.078C1201.5 255.017 1199.59 255.361 1197.84 256.084C1196.08 256.806 1194.52 257.889 1193.28 259.251C1190.86 262.437 1189.57 266.239 1189.57 270.136C1189.57 274.033 1190.86 277.835 1193.28 281.021C1194.53 282.358 1196.1 283.413 1197.85 284.104C1199.61 284.796 1201.52 285.106 1203.42 285.013C1206.43 285.123 1209.38 284.292 1211.82 282.654C1214.1 281.069 1215.63 278.731 1216.11 276.123V264.693Z" fill="white"/>
<path d="M1279.35 242.923L1278.76 256.711C1276.96 256.067 1275.03 255.759 1273.1 255.804C1270.65 255.785 1268.23 256.346 1266.07 257.437C1263.83 258.44 1261.94 260.012 1260.61 261.972C1259.2 264.03 1258.45 266.424 1258.46 268.866V295.898H1243.63V243.83H1255.93L1257.1 251.268C1259.15 248.44 1261.95 246.152 1265.23 244.627C1268.52 243.101 1272.17 242.389 1275.83 242.56C1277.2 242.741 1278.39 242.741 1279.35 242.923Z" fill="white"/>
<path d="M1301.99 236.573H1287.15V223.511H1301.99V236.573ZM1301.99 296.079H1287.15V244.011H1301.99V296.079Z" fill="white"/>
<path d="M1330.09 294.628C1325.48 292.913 1321.44 290.096 1318.38 286.464C1315.45 282.768 1313.75 278.351 1313.5 273.764H1329.5C1329.68 275.453 1330.24 277.087 1331.15 278.557C1332.06 280.028 1333.29 281.301 1334.77 282.291C1338.33 284.542 1342.58 285.627 1346.87 285.375C1350.8 285.571 1354.69 284.62 1358 282.654C1359.29 281.869 1360.35 280.791 1361.06 279.521C1361.78 278.251 1362.14 276.831 1362.1 275.397C1362.1 270.862 1358.59 267.959 1351.75 266.508L1335.75 263.242C1329.11 261.791 1324.04 259.614 1320.53 256.348C1318.78 254.741 1317.41 252.816 1316.5 250.692C1315.6 248.569 1315.17 246.294 1315.26 244.011C1315.14 239.93 1316.44 235.921 1318.97 232.582C1321.65 229.142 1325.3 226.446 1329.5 224.781C1334.59 222.874 1340.03 221.948 1345.51 222.059C1353.43 221.766 1361.23 223.866 1367.76 228.046C1370.56 230.054 1372.87 232.601 1374.53 235.512C1376.18 238.423 1377.14 241.632 1377.34 244.919H1361.53C1360.75 237.662 1355.68 234.215 1345.92 234.215C1342.23 233.995 1338.56 234.817 1335.38 236.573C1334.18 237.216 1333.19 238.142 1332.5 239.258C1331.82 240.373 1331.46 241.638 1331.48 242.923C1331.42 243.922 1331.62 244.92 1332.05 245.835C1332.49 246.749 1333.16 247.555 1333.99 248.184C1336.42 249.681 1339.14 250.729 1342 251.268L1357.41 254.534C1371.66 257.437 1378.71 263.968 1378.71 274.127C1378.82 278.574 1377.46 282.944 1374.8 286.645C1372.15 290.346 1368.33 293.196 1363.87 294.809C1358.59 296.714 1352.95 297.639 1347.28 297.531C1341.4 297.669 1335.55 296.681 1330.09 294.628Z" fill="white"/>
<path d="M1430.21 248.184C1434.51 251.813 1436.65 257.255 1436.65 264.693V296.079H1424.94L1423.58 289.185C1421.68 291.611 1419.21 293.598 1416.36 294.991C1413.01 296.7 1409.24 297.575 1405.43 297.531C1400.36 297.741 1395.37 296.261 1391.37 293.358C1389.63 291.981 1388.25 290.252 1387.34 288.302C1386.42 286.352 1386 284.234 1386.1 282.11C1386 280.284 1386.34 278.46 1387.08 276.767C1387.82 275.074 1388.95 273.553 1390.4 272.313C1393.86 269.519 1398.02 267.584 1402.5 266.689C1408.91 265.184 1415.43 264.152 1422.02 263.605V262.879C1422.21 260.443 1421.37 258.034 1419.67 256.167C1418.75 255.401 1417.67 254.814 1416.49 254.44C1415.32 254.067 1414.08 253.913 1412.84 253.99C1410.29 253.87 1407.78 254.647 1405.82 256.167C1405 256.817 1404.36 257.625 1403.92 258.534C1403.48 259.444 1403.26 260.432 1403.28 261.428H1388.45C1388.34 257.993 1389.44 254.619 1391.57 251.813C1393.75 248.841 1396.79 246.511 1400.35 245.1C1404.34 243.45 1408.67 242.644 1413.04 242.741C1419.3 242.471 1425.43 244.416 1430.21 248.184V248.184ZM1417.14 284.468C1419.62 282.478 1421.23 279.696 1421.63 276.667V272.495C1416.29 272.573 1411.01 273.493 1406.01 275.216C1402.5 276.667 1400.74 278.663 1400.74 281.384C1400.68 282.218 1400.85 283.053 1401.22 283.813C1401.6 284.573 1402.17 285.235 1402.89 285.738C1404.53 286.832 1406.54 287.347 1408.55 287.19C1410.1 287.311 1411.67 287.132 1413.15 286.664C1414.63 286.195 1415.98 285.448 1417.14 284.468V284.468Z" fill="white"/>
<path d="M1470.81 232.4C1469.26 235.134 1468.52 238.202 1468.66 241.29V244.011H1486.23V255.622H1468.66V296.079H1454.04V255.622H1443.11V246.007L1454.04 244.193V242.016C1454.04 233.852 1455.99 227.684 1459.9 223.148C1463.8 218.612 1469.66 216.435 1477.66 216.435C1482.31 216.369 1486.92 217.3 1491.13 219.157L1486.64 230.586C1484.06 229.472 1481.28 228.855 1478.44 228.772C1476.95 228.773 1475.48 229.103 1474.15 229.733C1472.83 230.364 1471.68 231.278 1470.81 232.4V232.4Z" fill="white"/>
<path d="M1544.78 274.672H1504.96C1505.42 277.75 1506.92 280.612 1509.26 282.836C1510.46 283.877 1511.87 284.686 1513.41 285.216C1514.95 285.745 1516.59 285.985 1518.23 285.92C1520.81 285.981 1523.34 285.282 1525.46 283.924C1527.29 282.764 1528.61 281.023 1529.16 279.026H1543.61C1543.48 282.511 1542.18 285.872 1539.9 288.641C1537.38 291.484 1534.17 293.724 1530.53 295.172C1526.47 296.804 1522.08 297.609 1517.65 297.531C1512.46 297.688 1507.32 296.494 1502.82 294.084C1498.63 291.827 1495.24 288.486 1493.06 284.468C1490.84 279.999 1489.71 275.129 1489.74 270.207C1489.77 265.284 1490.97 260.428 1493.25 255.985C1495.5 251.905 1498.95 248.507 1503.21 246.188C1507.66 243.822 1512.72 242.63 1517.84 242.741C1522.88 242.636 1527.86 243.762 1532.29 246.007C1536.33 248.072 1539.6 251.237 1541.66 255.078C1543.92 259.237 1545.05 263.844 1544.97 268.503V274.672H1544.78ZM1509.84 257.074C1507.57 259.001 1506 261.537 1505.35 264.331H1529.55C1529.33 261.606 1528.08 259.04 1526.04 257.074C1524.97 256.159 1523.7 255.461 1522.33 255.024C1520.95 254.586 1519.49 254.42 1518.04 254.534C1515.05 254.34 1512.11 255.253 1509.84 257.074V257.074Z" fill="white"/>
<path d="M968.634 240.927C968.176 226.152 961.539 212.124 950.132 201.826C938.725 191.527 923.447 185.769 907.545 185.775C907.559 198.414 912.091 210.69 920.428 220.674C928.766 230.657 940.437 237.782 953.605 240.927H953.41V256.892C953.415 260.644 955.021 264.24 957.875 266.893C960.729 269.546 964.598 271.038 968.634 271.043V240.927V240.927ZM936.235 216.073C932.384 212.483 929.216 208.311 926.867 203.736C936.792 208.123 944.787 215.555 949.507 224.781C944.585 222.597 940.097 219.653 936.235 216.073V216.073Z" fill="url(#paint8_linear_1303_12411)"/>
<path d="M1008.84 247.64C1024.73 247.215 1039.82 241.045 1050.9 230.442C1061.98 219.838 1068.18 205.637 1068.17 190.855V190.855C1054.57 190.868 1041.37 195.08 1030.63 202.831C1019.89 210.581 1012.22 221.429 1008.84 233.67V233.489H991.664C987.628 233.494 983.759 234.986 980.905 237.639C978.051 240.292 976.445 243.888 976.44 247.64H1008.84ZM1035.58 217.343C1039.44 213.763 1043.93 210.818 1048.85 208.634C1044.13 217.86 1036.13 225.292 1026.21 229.679C1028.56 225.104 1031.73 220.932 1035.58 217.343V217.343Z" fill="url(#paint9_linear_1303_12411)"/>
<path d="M1000.64 285.013C1001.1 299.788 1007.74 313.815 1019.14 324.114C1030.55 334.413 1045.83 340.171 1061.73 340.165C1061.72 327.526 1057.18 315.25 1048.85 305.266C1040.51 295.283 1028.84 288.158 1015.67 285.013H1015.87V269.047C1015.86 265.296 1014.25 261.699 1011.4 259.047C1008.55 256.394 1004.68 254.901 1000.64 254.897V285.013V285.013ZM1033.24 309.867C1037.09 313.457 1040.25 317.629 1042.6 322.204C1032.68 317.817 1024.68 310.385 1019.96 301.159C1024.93 303.278 1029.43 306.231 1033.24 309.867V309.867Z" fill="url(#paint10_linear_1303_12411)"/>
<path d="M960.631 278.3C944.736 278.725 929.646 284.895 918.566 295.498C907.487 306.102 901.293 320.303 901.299 335.085V335.085C914.896 335.072 928.103 330.86 938.843 323.109C949.583 315.359 957.247 304.51 960.631 292.269V292.451H977.826C981.862 292.446 985.731 290.954 988.585 288.301C991.439 285.648 993.044 282.052 993.049 278.3H960.631ZM933.893 308.434C930.031 312.014 925.544 314.959 920.621 317.142C925.341 307.917 933.336 300.484 943.261 296.097C940.912 300.673 937.744 304.844 933.893 308.434V308.434Z" fill="url(#paint11_linear_1303_12411)"/>
<path d="M332.572 278.119H303.881L297.05 296.261H281.242L310.712 223.511H328.668L355.407 296.261H339.012L332.572 278.119ZM308.761 265.601H328.473L319.3 238.75L308.761 265.601Z" fill="#2F2F2F"/>
<path d="M415.519 244.011V291.907C415.519 301.522 412.982 308.597 408.103 313.496C403.223 318.394 396.392 320.571 387.805 320.571C381.219 320.834 374.717 319.116 369.264 315.673C364.579 312.407 361.847 307.327 361.262 300.615H375.119C375.614 303.023 377.08 305.165 379.217 306.602C381.567 308.101 384.371 308.863 387.219 308.779C389.1 308.89 390.981 308.587 392.711 307.893C394.441 307.2 395.97 306.135 397.173 304.788C399.807 301.706 401.127 297.831 400.881 293.902V291.907C398.876 293.805 396.473 295.299 393.821 296.298C391.168 297.297 388.324 297.778 385.463 297.712C380.642 297.849 375.886 296.649 371.801 294.265C367.828 291.929 364.648 288.595 362.628 284.65C360.368 280.168 359.233 275.267 359.31 270.318C359.201 265.287 360.407 260.307 362.823 255.804C364.925 251.901 368.173 248.63 372.191 246.37C376.018 244.221 380.406 243.091 384.877 243.104C388.308 243.118 391.699 243.798 394.831 245.1C397.825 246.451 400.483 248.367 402.638 250.724L403.809 244.193H415.519V244.011ZM400.686 264.693C399.989 261.978 398.432 259.52 396.217 257.636C393.893 255.916 390.989 255.016 388.02 255.096C386.099 255.036 384.188 255.379 382.431 256.102C380.673 256.825 379.114 257.907 377.871 259.269C375.457 262.455 374.161 266.257 374.161 270.154C374.161 274.051 375.457 277.853 377.871 281.039C379.126 282.377 380.692 283.431 382.45 284.122C384.209 284.814 386.113 285.124 388.02 285.031C391.022 285.141 393.978 284.31 396.412 282.672C398.691 281.087 400.228 278.749 400.706 276.141L400.686 264.693Z" fill="#2F2F2F"/>
<path d="M463.922 242.923L463.336 256.711C461.532 256.067 459.609 255.759 457.676 255.804C455.223 255.785 452.805 256.346 450.65 257.437C448.405 258.44 446.511 260.012 445.185 261.972C443.771 264.03 443.026 266.424 443.038 268.866V295.898H428.205V243.83H440.501L441.672 251.268C443.724 248.44 446.527 246.152 449.81 244.627C453.092 243.101 456.743 242.389 460.409 242.56C461.775 242.741 462.946 242.741 463.922 242.923Z" fill="#2F2F2F"/>
<path d="M486.561 236.573H471.728V223.511H486.561V236.573ZM486.561 296.079H471.728V244.011H486.561V296.079Z" fill="#2F2F2F"/>
<path d="M514.666 294.628C510.057 292.913 506.017 290.096 502.956 286.464C500.022 282.768 498.325 278.351 498.076 273.764H514.08C514.255 275.453 514.815 277.087 515.724 278.557C516.632 280.028 517.869 281.301 519.35 282.291C522.902 284.542 527.16 285.627 531.451 285.375C535.374 285.571 539.264 284.62 542.575 282.654C543.867 281.869 544.922 280.791 545.639 279.521C546.356 278.251 546.713 276.831 546.674 275.397C546.674 270.862 543.161 267.959 536.525 266.508L520.521 263.242C513.885 261.791 508.811 259.614 505.298 256.348C503.551 254.741 502.181 252.816 501.274 250.692C500.367 248.569 499.943 246.294 500.028 244.011C499.906 239.93 501.207 235.921 503.736 232.582C506.425 229.142 510.067 226.446 514.276 224.781C519.356 222.874 524.802 221.948 530.28 222.059C538.197 221.766 546.004 223.866 552.529 228.046C555.338 230.056 557.648 232.606 559.302 235.52C560.955 238.435 561.914 241.647 562.112 244.937H546.303C545.522 237.68 540.448 234.233 530.689 234.233C527.001 234.013 523.327 234.835 520.15 236.591C518.953 237.234 517.961 238.16 517.275 239.276C516.589 240.391 516.234 241.656 516.247 242.941C516.188 243.942 516.388 244.942 516.829 245.857C517.271 246.773 517.941 247.577 518.784 248.202C521.209 249.706 523.928 250.754 526.786 251.286L542.205 254.552C556.452 257.455 563.478 263.986 563.478 274.145C563.583 278.591 562.221 282.959 559.575 286.663C556.884 290.406 552.991 293.263 548.45 294.827C543.164 296.732 537.528 297.657 531.86 297.549C525.974 297.684 520.12 296.69 514.666 294.628V294.628Z" fill="#2F2F2F"/>
<path d="M614.808 248.184C619.102 251.812 621.249 257.255 621.249 264.693V296.079H609.538L608.172 289.185C606.278 291.611 603.807 293.598 600.951 294.991C597.604 296.7 593.839 297.575 590.021 297.531C584.952 297.741 579.969 296.261 575.969 293.358C574.225 291.981 572.844 290.252 571.931 288.302C571.017 286.352 570.596 284.234 570.699 282.11C570.598 280.284 570.931 278.46 571.673 276.767C572.415 275.074 573.548 273.553 574.993 272.313C578.451 269.519 582.614 267.584 587.094 266.689C593.502 265.184 600.028 264.152 606.611 263.605V262.879C606.804 260.443 605.963 258.034 604.269 256.167C603.342 255.401 602.261 254.814 601.089 254.44C599.916 254.066 598.675 253.913 597.438 253.99C594.885 253.87 592.377 254.647 590.412 256.167C589.599 256.817 588.95 257.625 588.512 258.534C588.073 259.444 587.856 260.431 587.874 261.428H573.041C572.935 257.993 574.031 254.619 576.164 251.812C578.342 248.841 581.389 246.511 584.947 245.1C588.935 243.45 593.269 242.644 597.633 242.741C603.897 242.439 610.047 244.388 614.808 248.184ZM601.731 284.468C604.22 282.478 605.82 279.696 606.22 276.667V272.495C600.888 272.573 595.608 273.493 590.607 275.216C587.094 276.667 585.337 278.663 585.337 281.384C585.279 282.218 585.444 283.053 585.819 283.813C586.194 284.573 586.766 285.235 587.484 285.738C589.125 286.832 591.132 287.347 593.144 287.19C594.697 287.309 596.259 287.128 597.733 286.66C599.208 286.192 600.562 285.446 601.712 284.468H601.731Z" fill="#2F2F2F"/>
<path d="M655.384 232.4C653.833 235.134 653.093 238.202 653.237 241.29V244.011H670.803V255.622H653.237V296.079H638.404V255.622H627.475V246.007L638.404 244.193V242.016C638.404 233.852 640.356 227.684 644.259 223.148C648.163 218.612 654.018 216.435 662.02 216.435C666.674 216.369 671.282 217.3 675.487 219.157L670.998 230.586C668.425 229.472 665.637 228.855 662.801 228.772C661.346 228.797 659.917 229.138 658.629 229.769C657.342 230.399 656.23 231.3 655.384 232.4V232.4Z" fill="#2F2F2F"/>
<path d="M729.354 274.672H689.539C689.993 277.75 691.498 280.612 693.833 282.836C695.035 283.877 696.447 284.686 697.989 285.216C699.53 285.745 701.169 285.985 702.811 285.92C705.384 285.981 707.912 285.282 710.032 283.924C711.867 282.764 713.185 281.023 713.74 279.026H728.183C728.052 282.511 726.756 285.872 724.475 288.641C722.014 291.536 718.786 293.787 715.107 295.172C711.043 296.804 706.651 297.609 702.225 297.531C697.032 297.688 691.895 296.494 687.392 294.084C683.25 291.774 679.873 288.447 677.634 284.468C675.415 279.999 674.282 275.129 674.315 270.207C674.349 265.284 675.549 260.428 677.829 255.985C680.076 251.905 683.529 248.507 687.783 246.188C692.233 243.822 697.295 242.63 702.42 242.741C707.459 242.636 712.439 243.762 716.863 246.007C720.908 248.072 724.177 251.237 726.231 255.078C728.492 259.237 729.63 263.844 729.549 268.503V274.672H729.354ZM694.418 257.074C692.148 259.001 690.579 261.537 689.929 264.331H714.131C713.903 261.606 712.661 259.04 710.618 257.074C709.545 256.159 708.281 255.461 706.903 255.024C705.526 254.586 704.066 254.42 702.616 254.534C699.629 254.34 696.682 255.253 694.418 257.074Z" fill="#2F2F2F"/>
<path d="M153.404 240.927C152.947 226.152 146.31 212.124 134.902 201.826C123.495 191.527 108.218 185.769 92.3157 185.775V185.775C92.3292 198.414 96.8611 210.69 105.199 220.674C113.537 230.657 125.207 237.782 138.376 240.927H138.181V256.892C138.186 260.644 139.792 264.24 142.645 266.893C145.499 269.546 149.368 271.038 153.404 271.043V240.927V240.927ZM120.811 216.073C116.959 212.483 113.792 208.311 111.442 203.736C121.367 208.123 129.363 215.555 134.082 224.781C129.16 222.597 124.672 219.653 120.811 216.073V216.073Z" fill="#26A69A"/>
<path d="M193.414 247.64C209.31 247.215 224.4 241.045 235.479 230.442C246.558 219.838 252.753 205.637 252.746 190.855C239.15 190.868 225.943 195.08 215.203 202.831C204.463 210.581 196.798 221.429 193.414 233.67V233.489H176.239C172.203 233.494 168.334 234.986 165.48 237.639C162.627 240.292 161.021 243.888 161.016 247.64H193.414ZM220.153 217.343C224.014 213.763 228.502 210.818 233.424 208.634C228.705 217.86 220.709 225.292 210.784 229.679C213.134 225.104 216.301 220.932 220.153 217.343Z" fill="#26A69A"/>
<path d="M185.217 285.013C185.675 299.788 192.312 313.815 203.719 324.114C215.126 334.413 230.404 340.171 246.306 340.165C246.292 327.526 241.76 315.25 233.423 305.266C225.085 295.283 213.414 288.158 200.245 285.013H200.441V269.047C200.435 265.296 198.83 261.699 195.976 259.047C193.122 256.394 189.253 254.901 185.217 254.897V285.013V285.013ZM217.811 309.867C221.662 313.457 224.83 317.629 227.179 322.204C217.254 317.817 209.259 310.385 204.539 301.159C209.502 303.278 214.001 306.231 217.811 309.867V309.867Z" fill="#26A69A"/>
<path d="M145.207 278.3C129.315 278.73 114.23 284.901 103.155 295.504C92.0798 306.107 85.8881 320.306 85.8948 335.085V335.085C99.4914 335.072 112.698 330.86 123.438 323.109C134.178 315.359 141.843 304.51 145.227 292.269V292.451H162.402C166.438 292.446 170.307 290.954 173.161 288.301C176.014 285.648 177.62 282.052 177.625 278.3H145.207ZM118.469 308.434C114.607 312.014 110.119 314.959 105.197 317.142C109.917 307.917 117.912 300.484 127.837 296.097C125.488 300.673 122.32 304.844 118.469 308.434Z" fill="#26A69A"/>
<path d="M332.572 818.572H303.881L297.05 836.714H281.242L310.712 763.964H328.668L355.407 836.714H339.012L332.572 818.572ZM308.761 806.236H328.473L319.3 779.385L308.761 806.236Z" fill="white"/>
<path d="M415.519 784.646V832.542C415.519 842.157 412.982 849.232 408.103 854.131C403.223 859.029 396.392 861.206 387.805 861.206C381.219 861.469 374.717 859.751 369.264 856.308C364.579 853.042 361.847 847.963 361.262 841.25H375.119C375.614 843.658 377.08 845.8 379.217 847.237C381.567 848.736 384.371 849.498 387.219 849.414C389.1 849.525 390.981 849.222 392.711 848.528C394.441 847.835 395.97 846.77 397.173 845.423C399.807 842.342 401.127 838.466 400.881 834.537V832.542C398.876 834.44 396.473 835.934 393.821 836.933C391.168 837.932 388.324 838.413 385.463 838.347C380.642 838.484 375.886 837.284 371.801 834.9C367.828 832.564 364.648 829.231 362.628 825.285C360.368 820.803 359.233 815.902 359.31 810.953C359.201 805.922 360.407 800.942 362.823 796.439C364.925 792.536 368.173 789.265 372.191 787.005C376.018 784.856 380.406 783.726 384.877 783.739C388.308 783.753 391.699 784.433 394.831 785.735C397.825 787.086 400.483 789.002 402.638 791.359L403.809 784.828H415.519V784.646ZM400.686 805.329C399.989 802.613 398.432 800.155 396.217 798.271C393.939 796.474 391.002 795.564 388.02 795.731C386.099 795.671 384.188 796.014 382.431 796.737C380.673 797.46 379.114 798.542 377.871 799.904C375.457 803.09 374.161 806.892 374.161 810.789C374.161 814.686 375.457 818.488 377.871 821.675C379.126 823.012 380.692 824.066 382.45 824.757C384.209 825.449 386.113 825.759 388.02 825.666C391.022 825.776 393.978 824.945 396.412 823.307C398.691 821.722 400.228 819.384 400.706 816.776L400.686 805.329Z" fill="white"/>
<path d="M463.922 783.558L463.336 797.346C461.532 796.702 459.609 796.394 457.676 796.439C455.223 796.419 452.805 796.981 450.65 798.072C448.405 799.075 446.511 800.647 445.185 802.607C443.771 804.665 443.026 807.059 443.038 809.501V836.533H428.205V784.465H440.501L441.672 791.903C443.724 789.075 446.527 786.787 449.81 785.262C453.092 783.736 456.743 783.024 460.409 783.195C461.775 783.376 462.946 783.376 463.922 783.558Z" fill="white"/>
<path d="M486.561 777.027H471.728V763.964H486.561V777.027ZM486.561 836.714H471.728V784.646H486.561V836.714Z" fill="white"/>
<path d="M514.666 835.263C510.057 833.548 506.017 830.732 502.956 827.099C499.992 823.418 498.292 818.993 498.076 814.4H514.08C514.255 816.088 514.815 817.722 515.724 819.193C516.632 820.663 517.869 821.936 519.35 822.926C522.902 825.177 527.16 826.262 531.451 826.011C535.374 826.207 539.264 825.255 542.575 823.289C543.867 822.504 544.922 821.426 545.639 820.156C546.356 818.886 546.713 817.466 546.674 816.032C546.674 811.497 543.161 808.594 536.525 807.143L520.521 803.877C513.885 802.426 508.811 800.249 505.298 796.983C503.551 795.376 502.181 793.451 501.274 791.328C500.367 789.204 499.943 786.93 500.028 784.647C499.906 780.565 501.207 776.556 503.736 773.217C506.425 769.778 510.067 767.081 514.276 765.416C519.356 763.509 524.802 762.583 530.28 762.695C538.197 762.401 546.004 764.501 552.529 768.681C555.338 770.691 557.648 773.241 559.302 776.155C560.955 779.07 561.914 782.282 562.112 785.572H546.303C545.522 778.315 540.448 774.868 530.689 774.868C527.001 774.648 523.327 775.47 520.15 777.226C518.953 777.869 517.961 778.795 517.275 779.911C516.589 781.026 516.234 782.291 516.247 783.576C516.188 784.578 516.388 785.577 516.829 786.493C517.271 787.408 517.941 788.212 518.784 788.837C521.209 790.341 523.928 791.389 526.786 791.922L542.205 795.187C556.452 798.09 563.478 804.621 563.478 814.781C563.583 819.226 562.221 823.594 559.575 827.299C556.884 831.041 552.991 833.898 548.45 835.463C543.164 837.368 537.528 838.292 531.86 838.184C525.982 838.23 520.147 837.239 514.666 835.263V835.263Z" fill="white"/>
<path d="M614.808 788.819C619.102 792.448 621.249 797.89 621.249 805.329V836.714H609.538L608.172 829.82C606.278 832.247 603.807 834.233 600.951 835.626C597.604 837.335 593.839 838.21 590.021 838.166C584.952 838.376 579.969 836.896 575.969 833.993C574.225 832.616 572.844 830.887 571.931 828.937C571.017 826.988 570.596 824.869 570.699 822.745C570.598 820.919 570.931 819.095 571.673 817.402C572.415 815.709 573.548 814.189 574.993 812.948C578.451 810.154 582.614 808.219 587.094 807.324C593.505 805.834 600.03 804.803 606.611 804.24V803.514C606.804 801.078 605.963 798.669 604.269 796.802C603.342 796.036 602.261 795.449 601.089 795.075C599.916 794.702 598.675 794.548 597.438 794.625C594.885 794.505 592.377 795.282 590.412 796.802C589.599 797.452 588.95 798.26 588.512 799.169C588.073 800.079 587.856 801.067 587.874 802.063H573.041C572.935 798.628 574.031 795.254 576.164 792.448C578.342 789.476 581.389 787.146 584.947 785.735C588.935 784.085 593.269 783.28 597.633 783.377C603.897 783.074 610.047 785.023 614.808 788.819V788.819ZM601.731 825.103C604.22 823.113 605.82 820.331 606.22 817.302V813.13C600.888 813.208 595.608 814.129 590.607 815.851C587.094 817.302 585.337 819.298 585.337 822.019C585.279 822.854 585.444 823.688 585.819 824.448C586.194 825.208 586.766 825.87 587.484 826.373C589.125 827.467 591.132 827.982 593.144 827.825C594.697 827.944 596.259 827.763 597.733 827.295C599.208 826.827 600.562 826.081 601.712 825.103H601.731Z" fill="white"/>
<path d="M655.384 773.035C653.833 775.769 653.093 778.837 653.237 781.925V784.646H670.803V796.257H653.237V836.714H638.404V796.257H627.475V786.824L638.404 785.009V782.832C638.404 774.668 640.356 768.5 644.259 763.964C648.163 759.429 654.018 757.252 662.02 757.252C666.674 757.186 671.282 758.117 675.487 759.973L670.998 771.403C668.425 770.289 665.637 769.672 662.801 769.588C661.353 769.543 659.916 769.834 658.621 770.436C657.326 771.038 656.213 771.932 655.384 773.035V773.035Z" fill="white"/>
<path d="M729.354 815.125H689.539C689.993 818.204 691.498 821.065 693.833 823.289C695.035 824.331 696.447 825.14 697.989 825.669C699.53 826.199 701.169 826.438 702.811 826.373C705.384 826.434 707.913 825.736 710.032 824.378C711.867 823.218 713.186 821.477 713.74 819.479H728.183C728.052 822.965 726.756 826.326 724.475 829.095C722.014 831.99 718.786 834.24 715.107 835.626C711.043 837.258 706.651 838.062 702.225 837.984C697.032 838.141 691.895 836.947 687.392 834.537C683.25 832.228 679.873 828.901 677.634 824.922C675.415 820.452 674.282 815.583 674.315 810.66C674.349 805.737 675.549 800.882 677.829 796.439C680.076 792.359 683.529 788.96 687.783 786.642C692.233 784.276 697.295 783.084 702.421 783.195C707.459 783.09 712.44 784.216 716.863 786.461C720.908 788.525 724.177 791.691 726.231 795.532C728.47 799.698 729.608 804.3 729.549 808.957V815.125H729.354ZM694.419 797.527C692.148 799.455 690.579 801.991 689.93 804.784H714.131C713.903 802.059 712.661 799.493 710.618 797.527C709.545 796.612 708.281 795.914 706.903 795.477C705.526 795.04 704.066 794.873 702.616 794.987C699.656 794.967 696.773 795.861 694.419 797.527V797.527Z" fill="white"/>
<path d="M153.404 781.562C152.947 766.787 146.31 752.759 134.902 742.461C123.495 732.162 108.218 726.404 92.3157 726.41V726.41C92.3292 739.049 96.8611 751.325 105.199 761.308C113.537 771.292 125.207 778.417 138.376 781.562H138.181V797.527C138.186 801.279 139.792 804.875 142.645 807.528C145.499 810.181 149.368 811.673 153.404 811.678V781.562V781.562ZM120.811 756.707C116.959 753.118 113.792 748.946 111.442 744.371C121.367 748.758 129.363 756.19 134.082 765.416C129.16 763.232 124.672 760.287 120.811 756.707V756.707Z" fill="#26A69A"/>
<path d="M193.414 788.275C209.31 787.85 224.4 781.68 235.479 771.076C246.558 760.473 252.753 746.272 252.746 731.49C239.15 731.503 225.943 735.715 215.203 743.466C204.463 751.216 196.798 762.064 193.414 774.305V774.124H176.239C172.203 774.129 168.334 775.621 165.48 778.274C162.627 780.927 161.021 784.523 161.016 788.275H193.414ZM220.153 757.977C224.014 754.398 228.502 751.453 233.424 749.269C228.705 758.495 220.709 765.927 210.784 770.314C213.134 765.739 216.301 761.567 220.153 757.977V757.977Z" fill="#26A69A"/>
<path d="M185.217 825.484C185.675 840.26 192.312 854.287 203.719 864.586C215.126 874.884 230.404 880.642 246.306 880.636V880.636C246.292 867.998 241.76 855.721 233.423 845.738C225.085 835.755 213.414 828.63 200.245 825.484H200.441V809.519C200.435 805.768 198.83 802.171 195.976 799.518C193.122 796.866 189.253 795.373 185.217 795.368V825.484ZM217.811 850.339C221.662 853.929 224.83 858.1 227.179 862.676C217.254 858.289 209.259 850.856 204.539 841.631C209.46 843.809 213.947 846.747 217.811 850.321V850.339Z" fill="#26A69A"/>
<path d="M145.207 818.754C129.296 819.225 114.207 825.435 103.136 836.068C92.0654 846.701 85.8816 860.922 85.8948 875.72V875.72C99.4914 875.707 112.698 871.495 123.438 863.744C134.178 855.994 141.843 845.145 145.227 832.904V833.086H162.402C166.438 833.081 170.307 831.589 173.161 828.936C176.014 826.283 177.62 822.687 177.625 818.935L145.227 818.754H145.207ZM118.469 849.069C114.607 852.649 110.119 855.594 105.197 857.777C109.917 848.552 117.912 841.119 127.837 836.732C125.488 841.308 122.32 845.479 118.469 849.069V849.069Z" fill="#26A69A"/>
<path d="M1143.31 818.572H1114.62L1107.79 836.714H1091.98L1121.45 763.964H1139.41L1166.15 836.714H1149.58L1143.31 818.572ZM1119.5 806.236H1139.21L1130.04 779.385L1119.5 806.236Z" fill="#26A69A"/>
<path d="M1226.06 784.646V832.542C1226.06 842.157 1223.53 849.232 1218.65 854.131C1213.77 859.029 1206.94 861.206 1198.35 861.206C1191.76 861.469 1185.26 859.751 1179.81 856.308C1175.12 853.042 1172.39 847.963 1171.81 841.25H1185.66C1186.16 843.658 1187.62 845.8 1189.76 847.237C1192.11 848.736 1194.92 849.498 1197.76 849.414C1199.64 849.525 1201.53 849.222 1203.26 848.528C1204.99 847.835 1206.51 846.77 1207.72 845.423C1210.35 842.342 1211.67 838.466 1211.43 834.537V832.542C1209.42 834.44 1207.02 835.934 1204.37 836.933C1201.71 837.932 1198.87 838.413 1196.01 838.347C1191.19 838.484 1186.43 837.284 1182.35 834.9C1178.37 832.564 1175.19 829.231 1173.17 825.285C1170.91 820.803 1169.78 815.902 1169.85 810.953C1169.75 805.922 1170.95 800.942 1173.37 796.439C1175.47 792.536 1178.72 789.265 1182.74 787.005C1186.56 784.856 1190.95 783.726 1195.42 783.739C1198.85 783.753 1202.24 784.433 1205.38 785.735C1208.37 787.086 1211.03 789.002 1213.18 791.359L1214.35 784.828H1226.06V784.646ZM1211.23 805.329C1210.53 802.605 1208.97 800.139 1206.74 798.253C1204.46 796.456 1201.53 795.546 1198.54 795.713C1196.62 795.652 1194.71 795.996 1192.96 796.719C1191.2 797.441 1189.64 798.524 1188.4 799.886C1185.98 803.072 1184.69 806.874 1184.69 810.771C1184.69 814.668 1185.98 818.47 1188.4 821.656C1189.65 822.994 1191.22 824.048 1192.98 824.739C1194.73 825.431 1196.64 825.741 1198.54 825.648C1201.55 825.758 1204.5 824.927 1206.94 823.289C1209.22 821.704 1210.75 819.366 1211.23 816.758V805.329Z" fill="#26A69A"/>
<path d="M1274.66 783.558L1274.08 797.346C1272.27 796.702 1270.35 796.394 1268.42 796.439C1265.96 796.419 1263.54 796.981 1261.39 798.072C1259.15 799.075 1257.25 800.647 1255.93 802.607C1254.51 804.665 1253.77 807.059 1253.78 809.501V836.533H1238.95V784.465H1251.24L1252.41 791.903C1254.46 789.075 1257.27 786.787 1260.55 785.262C1263.83 783.736 1267.48 783.024 1271.15 783.195C1272.53 783.376 1273.69 783.376 1274.66 783.558Z" fill="#26A69A"/>
<path d="M1297.3 777.027H1282.47V763.964H1297.3V777.027ZM1297.3 836.714H1282.47V784.646H1297.3V836.714Z" fill="#26A69A"/>
<path d="M1325.41 835.263C1320.8 833.548 1316.76 830.732 1313.7 827.099C1310.73 823.418 1309.03 818.993 1308.82 814.4H1324.82C1324.99 816.088 1325.55 817.722 1326.46 819.192C1327.37 820.663 1328.61 821.936 1330.09 822.926C1333.64 825.177 1337.9 826.262 1342.19 826.011C1346.11 826.207 1350 825.255 1353.32 823.289C1354.61 822.504 1355.66 821.426 1356.38 820.156C1357.1 818.886 1357.45 817.466 1357.41 816.032C1357.41 811.497 1353.9 808.594 1347.27 807.143L1331.07 803.877C1324.43 802.426 1319.36 800.249 1315.84 796.983C1314.1 795.376 1312.73 793.451 1311.82 791.328C1310.91 789.204 1310.49 786.93 1310.57 784.646C1310.45 780.565 1311.75 776.556 1314.28 773.217C1316.97 769.777 1320.61 767.081 1324.82 765.416C1329.9 763.509 1335.35 762.583 1340.82 762.695C1348.74 762.401 1356.55 764.501 1363.07 768.681C1365.88 770.691 1368.18 773.238 1369.83 776.15C1371.48 779.061 1372.44 782.268 1372.64 785.554H1356.85C1356.05 778.297 1350.99 774.85 1341.23 774.85C1337.54 774.632 1333.86 775.454 1330.68 777.208C1329.48 777.851 1328.49 778.777 1327.8 779.893C1327.11 781.008 1326.76 782.273 1326.77 783.558C1326.72 784.559 1326.92 785.557 1327.36 786.472C1327.8 787.386 1328.47 788.191 1329.31 788.819C1331.73 790.323 1334.45 791.371 1337.31 791.903L1352.73 795.169C1366.98 798.072 1374 804.603 1374 814.762C1374.11 819.208 1372.75 823.576 1370.1 827.28C1367.41 831.027 1363.52 833.885 1358.98 835.444C1353.69 837.349 1348.05 838.274 1342.39 838.166C1336.58 838.216 1330.81 837.231 1325.41 835.263V835.263Z" fill="#26A69A"/>
<path d="M1425.53 788.819C1429.82 792.447 1431.97 797.89 1431.97 805.328V836.714H1420.26L1418.89 829.82C1417 832.246 1414.53 834.233 1411.67 835.626C1408.32 837.335 1404.56 838.209 1400.74 838.166C1395.67 838.376 1390.69 836.896 1386.69 833.993C1384.95 832.616 1383.56 830.887 1382.65 828.937C1381.74 826.987 1381.32 824.869 1381.42 822.745C1381.32 820.919 1381.65 819.095 1382.39 817.402C1383.14 815.709 1384.27 814.188 1385.71 812.948C1389.17 810.154 1393.33 808.219 1397.81 807.324C1404.23 805.834 1410.75 804.803 1417.33 804.24V803.514C1417.52 801.078 1416.68 798.668 1414.99 796.802C1414.06 796.036 1412.98 795.449 1411.81 795.075C1410.64 794.701 1409.4 794.548 1408.16 794.624C1405.61 794.505 1403.1 795.282 1401.13 796.802C1400.32 797.452 1399.67 798.26 1399.23 799.169C1398.79 800.079 1398.58 801.066 1398.6 802.063H1383.78C1383.68 798.628 1384.77 795.254 1386.9 792.447C1389.08 789.476 1392.13 787.146 1395.69 785.735C1399.68 784.085 1404.01 783.279 1408.37 783.376C1414.63 783.11 1420.76 785.055 1425.53 788.819V788.819ZM1412.45 825.103C1414.94 823.113 1416.54 820.331 1416.94 817.302V813.129C1411.61 813.208 1406.33 814.128 1401.33 815.851C1397.81 817.302 1396.06 819.298 1396.06 822.019C1396 822.853 1396.17 823.688 1396.54 824.448C1396.91 825.208 1397.49 825.87 1398.2 826.373C1399.85 827.467 1401.85 827.982 1403.86 827.825C1405.42 827.946 1406.99 827.767 1408.46 827.299C1409.94 826.83 1411.3 826.083 1412.45 825.103V825.103Z" fill="#26A69A"/>
<path d="M1466.12 773.035C1464.57 775.769 1463.83 778.837 1463.98 781.925V784.646H1481.54V796.257H1463.98V836.714H1449.14V796.257H1438.22V786.824L1449.14 785.009V782.832C1449.14 774.668 1451.1 768.5 1455 763.964C1458.9 759.429 1464.76 757.252 1472.76 757.252C1477.41 757.186 1482.02 758.117 1486.23 759.973L1481.74 771.403C1479.17 770.289 1476.38 769.672 1473.54 769.588C1472.09 769.522 1470.65 769.805 1469.35 770.408C1468.05 771.012 1466.94 771.917 1466.12 773.035V773.035Z" fill="#26A69A"/>
<path d="M1540.09 815.125H1500.28C1500.73 818.204 1502.24 821.065 1504.57 823.289C1505.77 824.331 1507.19 825.14 1508.73 825.669C1510.27 826.199 1511.91 826.438 1513.55 826.373C1516.12 826.434 1518.65 825.736 1520.77 824.378C1522.61 823.218 1523.93 821.477 1524.48 819.479H1538.92C1538.79 822.965 1537.5 826.326 1535.21 829.095C1532.75 831.99 1529.53 834.24 1525.85 835.626C1521.78 837.258 1517.39 838.062 1512.97 837.984C1507.77 838.141 1502.64 836.947 1498.13 834.537C1493.99 832.228 1490.61 828.901 1488.37 824.922C1486.15 820.452 1485.02 815.583 1485.06 810.66C1485.09 805.737 1486.29 800.882 1488.57 796.439C1490.82 792.359 1494.27 788.96 1498.52 786.642C1502.97 784.276 1508.03 783.084 1513.16 783.195C1518.2 783.09 1523.18 784.216 1527.6 786.461C1531.65 788.525 1534.92 791.691 1536.97 795.532C1539.21 799.698 1540.35 804.3 1540.29 808.957V815.125H1540.09ZM1505.16 797.527C1502.89 799.455 1501.32 801.991 1500.67 804.784H1524.87C1524.64 802.059 1523.4 799.493 1521.36 797.527C1520.29 796.612 1519.02 795.914 1517.64 795.477C1516.27 795.04 1514.81 794.873 1513.36 794.987C1510.39 794.907 1507.48 795.807 1505.16 797.527Z" fill="#26A69A"/>
<path d="M963.95 781.562C963.492 766.787 956.855 752.759 945.448 742.461C934.041 732.162 918.763 726.404 902.861 726.41V726.41C902.874 739.049 907.406 751.325 915.744 761.308C924.082 771.292 935.753 778.417 948.921 781.562H948.726V797.527C948.731 801.279 950.337 804.875 953.191 807.528C956.044 810.181 959.914 811.673 963.95 811.678V781.562ZM931.356 756.707C927.505 753.118 924.337 748.946 921.988 744.371C931.913 748.758 939.908 756.19 944.628 765.416C939.763 763.142 935.29 760.207 931.356 756.707V756.707Z" fill="#26A69A"/>
<path d="M2845.31 705.152C2844.85 690.377 2838.22 676.349 2826.81 666.05C2815.4 655.752 2800.12 649.994 2784.22 650V650C2784.24 662.639 2788.77 674.915 2797.11 684.898C2805.44 694.882 2817.11 702.006 2830.28 705.152H2830.09V721.117C2830.09 724.869 2831.7 728.465 2834.55 731.118C2837.41 733.771 2841.27 735.263 2845.31 735.268V705.152ZM2812.72 680.297C2808.87 676.708 2805.7 672.536 2803.35 667.961C2813.27 672.348 2821.27 679.78 2825.99 689.006C2821.12 686.732 2816.65 683.797 2812.72 680.297V680.297Z" fill="#26A69A"/>
<path d="M1004.15 788.275C1020.05 787.85 1035.14 781.68 1046.22 771.076C1057.3 760.473 1063.49 746.272 1063.49 731.49C1049.89 731.503 1036.68 735.715 1025.94 743.466C1015.2 751.216 1007.54 762.064 1004.15 774.305V774.124H986.98C982.944 774.129 979.075 775.621 976.221 778.274C973.367 780.927 971.761 784.523 971.756 788.275H1004.15ZM1030.89 757.977C1034.76 754.402 1039.26 751.464 1044.18 749.287C1039.46 758.513 1031.47 765.945 1021.54 770.332C1023.89 765.752 1027.05 761.574 1030.89 757.977V757.977Z" fill="#26A69A"/>
<path d="M2885.52 711.865C2901.41 711.44 2916.5 705.27 2927.58 694.666C2938.66 684.063 2944.85 669.861 2944.85 655.08C2931.25 655.092 2918.04 659.305 2907.3 667.055C2896.56 674.806 2888.9 685.654 2885.52 697.895V697.714H2868.34C2864.3 697.719 2860.44 699.211 2857.58 701.864C2854.73 704.517 2853.12 708.113 2853.12 711.865H2885.52ZM2912.25 681.567C2916.12 677.992 2920.62 675.054 2925.55 672.877C2920.83 682.103 2912.83 689.535 2902.91 693.922C2905.25 689.342 2908.41 685.164 2912.25 681.567V681.567Z" fill="#26A69A"/>
<path d="M995.957 825.484C996.415 840.26 1003.05 854.287 1014.46 864.586C1025.87 874.884 1041.14 880.642 1057.05 880.636C1057.03 868 1052.5 855.726 1044.17 845.743C1035.84 835.759 1024.17 828.633 1011.01 825.484H1011.2V809.519C1011.2 805.768 1009.59 802.171 1006.74 799.518C1003.88 796.866 1000.01 795.373 995.977 795.368V825.484H995.957ZM1028.55 850.339C1032.4 853.929 1035.57 858.1 1037.92 862.676C1027.99 858.289 1020 850.856 1015.28 841.631C1020.21 843.807 1024.7 846.746 1028.57 850.321L1028.55 850.339Z" fill="#26A69A"/>
<path d="M2877.32 749.074C2877.78 763.85 2884.41 777.877 2895.82 788.175C2907.23 798.474 2922.51 804.232 2938.41 804.226C2938.39 791.59 2933.87 779.315 2925.53 769.332C2917.2 759.349 2905.53 752.223 2892.37 749.074H2892.56V733.109C2892.56 729.357 2890.95 725.761 2888.1 723.108C2885.24 720.455 2881.37 718.963 2877.34 718.958V749.074H2877.32ZM2909.91 773.929C2913.76 777.519 2916.93 781.69 2919.28 786.265C2909.36 781.878 2901.36 774.446 2896.64 765.22C2901.57 767.397 2906.06 770.335 2909.93 773.911L2909.91 773.929Z" fill="#26A69A"/>
<path d="M955.947 818.754C940.052 819.179 924.961 825.348 913.882 835.952C902.803 846.555 896.609 860.757 896.615 875.538C910.212 875.526 923.419 871.313 934.159 863.563C944.899 855.813 952.563 844.964 955.947 832.723V832.904H973.122C977.158 832.9 981.027 831.407 983.881 828.755C986.735 826.102 988.341 822.505 988.346 818.754H955.947ZM929.209 849.069C925.347 852.649 920.859 855.594 915.937 857.777C920.657 848.552 928.652 841.119 938.577 836.733C936.228 841.308 933.06 845.479 929.209 849.069V849.069Z" fill="#26A69A"/>
<path d="M2837.31 742.344C2821.41 742.769 2806.32 748.938 2795.24 759.542C2784.16 770.145 2777.97 784.347 2777.98 799.128C2791.57 799.116 2804.78 794.903 2815.52 787.153C2826.26 779.402 2833.92 768.554 2837.31 756.313V756.494H2854.48C2858.52 756.49 2862.39 754.997 2865.24 752.344C2868.1 749.692 2869.7 746.095 2869.71 742.344H2837.31ZM2810.57 772.659C2806.71 776.239 2802.22 779.183 2797.3 781.367C2802.02 772.141 2810.01 764.709 2819.94 760.322C2817.59 764.898 2814.42 769.069 2810.57 772.659V772.659Z" fill="#26A69A"/>
</g>
<defs>
<linearGradient id="paint0_linear_1303_12411" x1="2792.8" y1="166.708" x2="2854.01" y2="166.708" gradientUnits="userSpaceOnUse">
<stop stop-color="white"/>
<stop offset="1" stop-color="white" stop-opacity="0.5"/>
</linearGradient>
<linearGradient id="paint1_linear_1303_12411" x1="2861.54" y1="157.546" x2="2953.27" y2="157.546" gradientUnits="userSpaceOnUse">
<stop stop-color="white"/>
<stop offset="1" stop-color="white" stop-opacity="0.5"/>
</linearGradient>
<linearGradient id="paint2_linear_1303_12411" x1="2885.9" y1="235.648" x2="2947.11" y2="235.648" gradientUnits="userSpaceOnUse">
<stop stop-color="white"/>
<stop offset="1" stop-color="white" stop-opacity="0.5"/>
</linearGradient>
<linearGradient id="paint3_linear_1303_12411" x1="2786.56" y1="244.81" x2="2878.29" y2="244.81" gradientUnits="userSpaceOnUse">
<stop stop-color="white"/>
<stop offset="1" stop-color="white" stop-opacity="0.5"/>
</linearGradient>
<linearGradient id="paint4_linear_1303_12411" x1="1955.03" y1="161.991" x2="2016.24" y2="161.991" gradientUnits="userSpaceOnUse">
<stop stop-color="white"/>
<stop offset="1" stop-color="white" stop-opacity="0.5"/>
</linearGradient>
<linearGradient id="paint5_linear_1303_12411" x1="2023.83" y1="152.829" x2="2115.56" y2="152.829" gradientUnits="userSpaceOnUse">
<stop stop-color="white"/>
<stop offset="1" stop-color="white" stop-opacity="0.5"/>
</linearGradient>
<linearGradient id="paint6_linear_1303_12411" x1="2048.15" y1="231.112" x2="2109.35" y2="231.112" gradientUnits="userSpaceOnUse">
<stop stop-color="white"/>
<stop offset="1" stop-color="white" stop-opacity="0.5"/>
</linearGradient>
<linearGradient id="paint7_linear_1303_12411" x1="1948.69" y1="240.274" x2="2040.42" y2="240.274" gradientUnits="userSpaceOnUse">
<stop stop-color="white"/>
<stop offset="1" stop-color="white" stop-opacity="0.5"/>
</linearGradient>
<linearGradient id="paint8_linear_1303_12411" x1="907.545" y1="228.391" x2="968.77" y2="228.391" gradientUnits="userSpaceOnUse">
<stop stop-color="white"/>
<stop offset="1" stop-color="white" stop-opacity="0.5"/>
</linearGradient>
<linearGradient id="paint9_linear_1303_12411" x1="976.343" y1="219.229" x2="1068.07" y2="219.229" gradientUnits="userSpaceOnUse">
<stop stop-color="white"/>
<stop offset="1" stop-color="white" stop-opacity="0.5"/>
</linearGradient>
<linearGradient id="paint10_linear_1303_12411" x1="1000.64" y1="297.513" x2="1061.87" y2="297.513" gradientUnits="userSpaceOnUse">
<stop stop-color="white"/>
<stop offset="1" stop-color="white" stop-opacity="0.5"/>
</linearGradient>
<linearGradient id="paint11_linear_1303_12411" x1="901.299" y1="306.674" x2="993.03" y2="306.674" gradientUnits="userSpaceOnUse">
<stop stop-color="white"/>
<stop offset="1" stop-color="white" stop-opacity="0.5"/>
</linearGradient>
<clipPath id="clip0_1303_12411">
<rect width="3286" height="1080" fill="white"/>
</clipPath>
</defs>
</svg>
